<?xml version="1.0" encoding="utf-8"?>
<!-- Generator: Adobe Illustrator 21.1.0, SVG Export Plug-In . SVG Version: 6.00 Build 0)  -->
<svg version="1.1" id="Calque_1" xmlns="http://www.w3.org/2000/svg" xmlns:xlink="http://www.w3.org/1999/xlink" x="0px" y="0px"
	 viewBox="0 0 1002 181" style="enable-background:new 0 0 1002 181;" xml:space="preserve">
<style type="text/css">
	.st0{fill:url(#SVGID_1_);}
	.st1{fill:url(#SVGID_2_);}
	.st2{fill:url(#SVGID_3_);}
	.st3{fill:url(#SVGID_4_);}
	.st4{fill:url(#SVGID_5_);}
	.st5{fill:url(#SVGID_6_);}
	.st6{fill:url(#SVGID_7_);}
	.st7{fill:url(#SVGID_8_);}
	.st8{fill:url(#SVGID_9_);}
</style>
<g>
	<linearGradient id="SVGID_1_" gradientUnits="userSpaceOnUse" x1="65.0133" y1="-19.4045" x2="65.0133" y2="156.1123">
		<stop  offset="0" style="stop-color:#FFBA00"/>
		<stop  offset="1" style="stop-color:#FF0084"/>
	</linearGradient>
	<path class="st0" d="M28.3,162.2c-4.5-3.4-8.5-7-11.7-11.5c-2.1-2.8-3.8-5.9-5.1-9.1c-2.1-5.1-4-10.4-4.9-15.7
		c-0.6-2.8-0.8-5.7-0.4-8.7c0.2-2.3,1.1-4.3,2.8-6c1.5-1.5,3.2-3,5.1-4.2c2.5-1.5,5.7-1.1,7.7,0.6c1.1,0.8,1.1,1.9,0,2.5
		c-1.3,0.8-2.5,1.5-3.8,2.3c-0.2,0.2-0.2,0.4-0.2,0.6c0,0.4,0.4,0.6,0.8,0.6c1.9-0.6,3.6-0.9,5.3-1.5c-1.7,0.9-3.6,2.1-5.1,3.4
		c-1.5,0.4-2.3,0.9-1.7,1.1c0.8,0,1.1-0.8,1.7-1.3c1.3,0.2,2.8-0.2,4.2-0.8c0.4-0.2,0.8-0.4,1.3-0.6c1.1-0.6,2.5-0.8,3.4,0.6
		c1.1,1.1,1.1,3,0,4.5c-0.4,0.6-1.1,1.1-1.7,1.7c-0.2,0.4-0.6,0.8-0.8,1.1c-0.2,0.2-0.2,0.6,0,0.8c0.2,0.4,0.6,0.4,0.8,0.2
		c0.8-0.2,1.5-0.6,2.3-0.9c0.4-0.2,0.8-0.4,0.9-0.4c0.4,0,0.6,0,0.8,0.2c0,0,0.2,0.4,0,0.6c-0.6,0.8-1.3,1.7-2.1,2.5
		c-0.9,0.9-1.9,2.1-1.9,3.6c0,0.4,0,0.9,0,1.5c-0.4,0.9-0.9,1.9-1.1,3c-0.6,1.7-0.2,2.6,1.5,3.4c1.9,1.1,4,2.1,6.2,2.3
		c2.8,0.4,5.5,0.6,8.3,0c1.7-0.6,3.4-0.9,5.3-1.1c3.4-0.8,6.4-2.3,9.5-4.3c1.1-0.8,2.5-1.7,4-2.3c6-3.2,10.6-8.1,14.4-13.8l0.2-0.2
		c1.3-2.5,1.1-4-0.9-5.7c-2.5-1.9-4.7-4-7.6-5.5c-8.5-4.3-16.1-10-23.6-15.7C36.8,86,32.6,81.1,29.8,75c-0.9-2.1-1.7-4.5-1.5-7
		c0-3.2-0.6-6.4-1.1-9.5c-1.1-6.4,0.8-11.7,5.5-16.3c1.9-1.9,4-3.4,6.4-4.5c1.1-0.6,2.1-1.1,3-1.7c2.8-1.9,5.7-3.2,8.5-4.7
		c4.3-2.3,8.9-4,13.6-5.5c5.1-1.7,10.2-3.6,15.5-4.3c7.6-1.3,14.9-2.3,22.5-1.7c3,0.2,5.9,0.6,8.5,1.7c4.2,1.5,7,4.5,8.7,8.5
		c1.1,2.8,2.1,5.7,3,8.5c0.6,1.3,0.8,2.8,0.9,4.2c0.2,1.5,0,3,0.4,4.3c1.1,3.4-0.6,6.2-2.1,9.1c-0.6,0.9-1.3,1.7-2.5,2.1
		c-1.7,1.1-3.4,2.1-5.5,2.5c1.5-1.3,3.6-1.9,4.9-3.4c-0.4-0.8-0.9-0.4-1.3-0.2c-2.8,1.3-5.9,2.8-8.7,4.2c-1.3,0.6-2.6,1.1-4.2,1.1
		c-0.4,0-0.8-0.2-0.8-0.6c0-0.2,0.2-0.6,0.4-0.6c0.9-0.6,1.9-0.9,2.8-1.5c0.2,0,0.2-0.4,0.2-0.6c0-0.2-0.4-0.2-0.6-0.2
		c-0.9,0.2-1.9,0.4-2.8,0.6c-2.1,0.6-3,0-3-2.1c0-2.3-0.4-4.3-0.8-6.4c-0.2-1.5-0.8-1.9-2.1-1.9c-0.6,0-0.9,0.2-1.5,0.2
		c-4.7,0.9-9.4,2.3-14.2,3.8c-2.1,0.8-4.2,1.7-6.2,2.5c-4.2,1.5-7.7,3.8-11.5,5.9c-2.5,1.3-4.9,3-7.4,4.3c-0.6,0.4-1.1,0.8-1.5,1.1
		c-1.5,1.1-1.5,2.3,0,3.4c3.2,2.3,6.4,4.3,9.6,6.4c4,2.6,8.1,5.5,11.5,8.9c4,3.8,7.4,8.1,10,13c2.8,4.7,5.1,9.6,7,14.9
		c1.7,4.9,2.6,10.2,3,15.3c0.2,1.3-0.6,2.1-0.9,3c-0.6,1.3-0.4,1.5,1.3,2.1c-0.4,1.9-0.8,3.6-1.1,5.5c-1.1,3.8-3.6,6.6-6.4,8.9
		c-4,3.2-8.1,6-12.1,9.1c-2.6,2.1-5.5,4-8.5,5.3c-3.2,1.5-6.4,3-9.8,4c-0.9,0.4-2.1,0.6-2.8,1.1c-3.6,2.3-7.6,2.1-11.3,1.5
		C38.7,168.4,33.2,165.8,28.3,162.2z M24.5,111.5 M26,128.1c0.8-0.6,1.5-1.1,2.5-1.7c-0.6,1.5-1.5,2.3-2.5,3.2
		C26,129.1,26,128.5,26,128.1z M46.8,47.4c0.4-0.4,0.8-0.6,0.8-1.1c-2.6,0.9-2.6,0.9-5.1,3.6C44.1,49.3,45.5,48.2,46.8,47.4z
		 M49.1,148.2c2.5-0.6,4.7-1.3,7-2.5c3.8-1.9,7.6-4,10.8-6.8c-1.5,0.2-3.2,0.6-4.7,1.5c-4.3,2.5-9.1,4.2-13.6,6
		c-0.8,0.4-2.1,0.4-2.3,1.9C47.2,148.7,48.1,148.4,49.1,148.2z M65.5,144.2c-0.4-0.6-0.9-0.2-1.3-0.2c-3.2,1.5-6.6,3-9.8,4.3
		c-0.9,0.6-1.9,1.1-2.5,2.1C56.4,150.1,61.7,147.6,65.5,144.2z M58.1,63.3c7.4-4.5,14.9-8.5,23.2-11.2c5.3-1.7,10.6-3.6,16.3-4.3
		c0.9-0.2,1.9-0.4,2.6-0.9c0,0,0-0.2,0-0.4c0,0,0-0.2-0.2-0.2c-0.8-0.4-1.3-0.2-2.1,0C91.8,47.3,85.7,49,79.7,51
		c-8.3,2.6-15.7,6.8-23.1,11.3c-1.3,0.9-2.6,1.7-3.4,3.2C55.1,65.4,56.6,64.3,58.1,63.3z M55.7,163.3c6.6-1.5,12.9-4.3,18.1-8.7
		c0.2-0.2,0.4-0.4,0.4-0.6c0.2-0.2,0.2-0.6,0-0.8c0-0.2-0.4-0.4-0.6-0.4c-0.6,0.2-1.3,0.4-1.9,0.8c-5.3,2.5-10.4,4.9-15.7,7
		c-0.9,0.4-1.9,0.6-2.5,1.5c-0.2,0-0.2,0.4-0.2,0.6c0,0.2,0.2,0.4,0.4,0.6c0.2,0,0.6,0,0.8,0.2C54.9,163.3,55.3,163.3,55.7,163.3z
		 M62.7,167.6c-1.1,0.8-2.1,1.7-3.6,1.5C58.3,169,60.2,168,62.7,167.6z M71.9,164.1c-2.8,2.3-5.9,3.2-9.3,3.6
		C65.3,165.6,68.5,164.8,71.9,164.1z M66.1,52c4.2-1.7,8.5-3.4,13-4.7c7.7-2.3,15.5-4,23.6-4.5c0.9,0,1.9,0,2.6-0.6
		c0.4-0.2,0.6-0.6,0.8-0.8c-0.2-0.6-0.6-0.9-0.9-0.9c-2.3-0.4-4.3-0.2-6.4,0.2c-7,0.6-13.8,2.3-20.2,4.5c-4.9,1.7-9.4,3.6-13.8,6
		c-0.6,0.4-0.9,0.8-1.5,1.1c0,0,0,0.2,0.2,0.4l0.2,0.2C64.5,52.9,65.1,52.4,66.1,52z M68,35c7-1.9,14-3.8,21-4.7
		c3.6-0.4,7.2-0.8,10.8-1.1c1.3-0.2,2.8-0.4,4.2-0.6c0.2,0,0.4-0.2,0.6-0.4c0-0.6-0.4-0.6-0.8-0.6c-3.4-0.4-6.8-0.2-10.4,0
		c-6.4,0.6-12.7,2.3-18.9,4c-3,0.8-5.9,2.1-8.7,3.2c-0.2,0.2-0.2,0.4,0,0.6c0,0.2,0.2,0.2,0.2,0.2C66.6,35.3,67.4,35.2,68,35z
		 M79.1,159.7c-1.9,2.5-4.3,3.8-7.2,4.3C74,162.2,76.5,160.8,79.1,159.7z M75.5,36.1c7-1.7,14.2-2.8,21.4-4c1.1-0.2,2.3,0.2,3-0.8
		c-0.9-1.5-2.1-0.4-3-0.6c-1.3,0-2.5,0-3.8,0.2c-5.9,0.8-11.7,2.3-17.4,4c-0.6,0-1.1,0.4-1.7,0.6c-0.2,0.2-0.4,0.4-0.4,0.6
		c0,0.4,0.6,0.4,0.8,0.4C74.8,36.3,75.1,36.3,75.5,36.1z M86.9,152.7c0.9-0.8,1.9-1.3,3-1.5c-2.1,3-5.1,4.9-7.7,7.2
		c-0.9,0.8-2.1,0.9-3,1.3C81.6,157.2,84,155,86.9,152.7z M92.1,148.4c-0.4,0.2-0.6,0.4-0.8,0.6C91.6,148.7,91.8,148.6,92.1,148.4z
		 M92,148.2l0.2,0.2L92,148.2z M97.1,133.8 M112.2,61.2c-0.6,0.4-1.1,0.8-2.1,1.1C110.9,61.4,111.6,61.6,112.2,61.2z M113.7,60.7
		c-0.6,0.2-0.9,0.4-1.5,0.6C112.6,61,113.1,60.9,113.7,60.7z"/>
	<linearGradient id="SVGID_2_" gradientUnits="userSpaceOnUse" x1="160.6033" y1="-19.4045" x2="160.6033" y2="156.1123">
		<stop  offset="0" style="stop-color:#FFBA00"/>
		<stop  offset="1" style="stop-color:#FF0084"/>
	</linearGradient>
	<path class="st1" d="M110.9,161c-0.6-1.3-1.1-1.3-2.3-1.1c-2.5,0.4-2.8,0-3.8-2.1c-0.4-0.8-0.6-1.5-0.8-2.3
		c-0.4-1.1-0.9-2.1-1.7-2.8c-2.6-2.1-3-5.1-2.6-8.1c0.2-1.7,0.6-3.6,1.3-5.1c1.1-3,2.5-6,3.6-9.1c4.2-11.7,9.3-22.9,14.6-34
		c2.1-4.5,4.5-8.9,6.6-13.4c0.9-1.9,1.7-4,2.8-5.9c1.7-3.6,3.8-7.2,5.7-10.8c1.1-1.7,1.9-3.6,2.8-5.5c1.3-2.5,2.6-4.9,4.5-7.2
		c0.9-1.1,0.4-2.1-1.1-2.3c-0.6,0-1.1,0.2-1.7,0.2c1.1-0.6,2.1-1.1,3.2-1.7c0.2,0,0.4-0.4,0.4-0.6c0-0.4-0.6-0.4-0.8-0.4
		c-2.1,0.8-4.2,1.3-6.2,2.1c-1.3,0.4-2.6,0.9-4,1.3c-1.5,0.4-1.7,0.4-2.3-1.5c-0.2-0.6-0.6-0.6-0.9-0.8c-2.3-0.9-2.5-1.1-2.1-3.4
		c0-1.1,0-1.9-0.4-2.8c-0.6-1.1-0.4-2.1,0.2-3.2c0.8-2.1,2.1-4,4-5.3c2.1-1.3,4.3-2.6,6.4-4c0.8-0.6,1.7-0.9,2.5-1.5
		c1.9-1.5,4.2-2.3,6.4-3c1.3-0.6,2.5-0.9,3.8-1.3c4.9-2.5,10.4-3.6,15.7-4.7c7.7-1.7,15.5-2.1,23.2-0.9c1.7,0.2,3.2,0.2,4.9,0.4
		c0.9,0.2,1.7,0.4,2.5,0.6c10.6,3.4,18.1,10,22.1,20.4c2.5,6.8,4.2,13.8,4.2,21c0.2,6.4-0.9,12.7-4.7,18c-0.4,0.4-0.4,0.8-0.6,0.9
		c-3.2,2.8-5.1,6.8-8.5,9.3c-2.3,1.5-4,3.8-6.4,5.1c-2.8-0.4-4.7,1.5-6.6,2.8c-0.2,0.2-0.2,0.6-0.2,0.8c0.2,0,0.6,0.2,0.8,0
		c0.8-0.4,1.5-0.8,2.1-1.1c1.1-0.8,2.1-1.3,3.2-1.7c-1.5,1.9-3.4,3-5.3,4.2c-0.8,0.6-1.5,0.9-2.3,0.8c-1.5-0.4-2.6,0.4-3.8,0.9
		c-0.4,0.4-0.8,0.6-1.1,0.8c-5.3,4.2-11.2,7-16.6,10.8c-0.2,0.2-0.6,0.4-0.9,0.4c-10,4.9-20,10.2-31.2,12.5
		c-2.3,0.6-4.5,1.3-6.8,2.1c-1.5,0.4-2.3,1.7-3.2,2.8c0-0.2-0.2-0.4-0.4-0.4c0-0.2-0.2,0-0.2,0c0,0.4,0.4,0.2,0.8,0.4
		c-0.8,2.8-2.3,5.5-3.8,7.9c0-0.2,0-0.8-0.4-0.6c-0.2,0-0.2,0.4-0.4,0.6c-0.2,0.4-0.4,0.9-0.6,1.3s-0.6,0.6-0.8,0.8
		c-0.2,0.4-0.6,0.6-0.8,0.8c0,0.2,0,0.4,0,0.6c0,0,0.4-0.2,0.4-0.4c0.2-0.2,0.2-0.6,0.4-0.9c0.2-0.2,0.4-0.6,0.8-0.8
		c0.2-0.4,0.4-0.9,0.6-1.5c0.4,0,0.6,0.2,0.8,0.2c-0.8,3.2-2.5,6-4.7,8.5c-0.8,0.8-1.3,1.5-1.7,2.6c0,0.6,0.2,0.9,0.8,1.1v-0.2
		c-0.4,1.7-1.1,2.8-2.3,4c-0.8,0.6-0.4,1.3,0.2,1.9h-0.2c-0.2,1.1-0.8,2.5-1.3,3.4v0.2c-1.5-0.6-2.5,0.2-3.8,0.8
		C111.6,162.2,111.2,162,110.9,161z M116.5,160.8h-0.2H116.5z M118,157.1v0.2h-0.2L118,157.1z M120.1,151.4c0.2-0.4,0.4-0.9,0.8-1.3
		c-0.2,0.4-0.6,0.9-0.8,1.5V151.4z M120.9,149.9v0.2V149.9z M133.9,49.5c1.7-0.8,3.6-1.3,5.3-2.1c2.1-0.8,4.2-1.5,6.4-2.5
		c0.6-0.2,1.3-0.6,1.7-1.1c0-0.2,0-0.2,0-0.4c-0.2,0-0.2-0.2-0.4-0.2c-0.6,0-1.1,0-1.7,0.2c-4.3,1.5-8.5,3.2-12.5,5.3
		c-0.2,0-0.4,0.2-0.6,0.4c0,0.2,0,0.2,0,0.4c0,0,0.2,0.2,0.4,0.4C133,49.7,133.3,49.7,133.9,49.5z M139,123.8
		c6.2-0.9,11.9-3.6,17.2-6.6c0.8-0.6,1.3-1.1,1.9-1.7c0.6-0.2,0.9-0.4,1.5-0.8c0.8,0,1.3-0.2,2.1-0.4c1.1-0.4,1.7-1.1,1.3-1.1
		c-0.8-0.4-1.3,0-1.7,0.2c-0.6,0.4-1.1,0.9-1.7,1.5c-0.4,0.2-0.9,0.4-1.5,0.6c-0.9,0.4-2.1,0.6-3,0.9c-5.9,2.3-11.5,4.3-17.8,5.5
		c-0.4,0-0.9,0.2-1.3,0.6c-0.2,0.2-0.4,0.6-0.4,0.8c-0.2,0.4,0.2,0.6,0.6,0.8C137.1,124.2,138.1,124,139,123.8z M136.6,52.4h0.2
		c-0.2,0-0.4,0-0.6,0.2C136.4,52.4,136.6,52.4,136.6,52.4z M138.8,51.6c-0.8,0.2-1.5,0.4-2.3,0.8C137.3,52,138.1,51.8,138.8,51.6z
		 M138.4,128c0.2-0.2,0.4-0.2,0.8-0.2c0.2,0,0.2,0.2,0.4,0.2c-0.2,0.4-0.6,0.4-0.9,0.4C138.4,128.3,138.3,128.1,138.4,128z
		 M142.2,112.6l0.2-0.2v0.2c-0.6,0-0.9,0.2-1.3,0.2c-0.2,0-0.2,0.2-0.4,0.2c0,0.4,0.2,0.6,0.6,0.4
		C141.7,113.2,142,112.8,142.2,112.6z M143.4,109.6c0.2-0.2,0.2-0.4,0.4-0.4c-0.2,0-0.4-0.2-0.6,0c-0.2,0.2-0.6,0.4-0.8,0.6
		C142.6,109.6,143,109.6,143.4,109.6z M148.8,32.1c2.8,0,5.7-0.9,8.3-1.7c3.2-0.8,6.4-1.3,9.6-1.7c5.5-0.8,11.2-1.3,16.6-1.5
		c0.9,0,1.9,0.2,2.8-0.4c-3.2-0.9-7-1.3-10.2-1.1c-8.1,0.6-16.1,2.1-23.8,4.7C151.1,30.8,149.8,31.2,148.8,32.1
		c-1.3,0.2-2.5,0.8-3.6,1.5C146.6,33.3,147.7,33.1,148.8,32.1z M146.8,96.2c-0.2,0-0.8,0-0.4,0.6C146.6,96.6,146.6,96.4,146.8,96.2z
		 M146.8,126.4c0.2,0,0.4,0,0.8-0.2h-0.2c-0.2,0.2-0.4,0.2-0.6,0.4h-0.2C146.4,126.4,146.4,126.4,146.8,126.4z M149.4,125.3
		c6.4-2.1,12.3-5.5,18.5-8.1c1.7-0.8,3.2-1.9,4.9-2.8c1.5-0.9,3-1.9,4.7-2.5c-2.1,2.6-5.1,4-7.9,5.5c-4.7,2.3-9.4,4.5-14.4,6.6
		c-2.5,1.1-4.9,2.1-7.7,2.3C148.1,126.1,148.7,125.7,149.4,125.3z M148.1,35c4.5-0.6,8.9-1.9,13-3.6c1.3,0.4,2.5,0.2,3.8,0
		c4-0.4,7.9-0.9,11.7-1.3c1.3-0.2,2.8-0.2,4.3-1.1c-0.8-0.2-1.1-0.2-1.3-0.4c-5.3,0-10.6,0.6-15.7,1.7c-0.9,0.2-2.1,0.4-2.8,1.1
		C156.6,31.8,152.1,32.5,148.1,35v0.2V35z M155.3,95.1c2.5-1.7,5.1-3.2,7.7-4.7c6.8-3.8,13-8.1,18.9-13.4c2.1-1.7,4-3.8,6.2-5.5
		c5.9-4,10.4-9.4,15.3-14.6c0.8-0.8,1.5-1.9,2.1-2.8c0.8-1.5,0.6-2.5-0.8-3.6c-1.1-1.1-2.6-1.9-4.2-2.6c-2.8-1.5-5.9-2.1-8.9-2.8
		c-5.5-1.1-10.8-1.5-16.4-1.1c-1.7,0.2-3.6,0.6-5.1,1.5c-0.8,0.6-0.9,1.5-0.2,2.1c0.6,0.6,1.3,0.8,1.1,1.7c-0.6,2.1-0.8,4.2-2.1,6
		c-1.7,2.1-2.1,4.9-4,7c-0.2,0.4-0.2,0.8-0.2,1.1c0,1.7-0.8,3.2-1.5,4.7c-1.7,3.2-3.4,6.2-5.3,9.4c-0.4-0.6-0.9-0.9-1.3,0
		c0.4,0,0.9,0,1.5-0.2c-1.7,4-4.2,7.7-6.2,11.5c-0.4,0.8-1.1,1.5-2.1,1.9c-0.6,0.2-1.1,0.6-0.9,1.3c0.4,1.5-0.4,3-0.8,4.5
		c-0.2,1.1,0.8,1.9,1.7,1.5C151.9,97.3,153.6,96.2,155.3,95.1z M151.7,86.8l0.2-0.2L151.7,86.8c-0.4,0.6-1.3,0.8-0.9,1.7
		C151.5,88.1,151.5,87.3,151.7,86.8z M153.9,82.8v-0.2l-0.2,0.2H153.9z M159.6,103.4c0.6-0.4,0.9-0.6,1.5-0.8
		C160.6,102.8,160.2,103,159.6,103.4c-0.4,0.2-0.9,0.4-1.5,0.6C158.7,103.8,159.2,103.6,159.6,103.4z M172.5,39.5c1.7,0,3.4,0,5.1,0
		c2.6-0.2,5.1-0.4,7.7-0.4c0.2,0,0.6-0.2,0.6-0.4c0.2-0.6-0.2-0.6-0.6-0.8c-5.1-0.9-10.2-0.9-15.3-0.2c-1.1,0-1.7,0.6-1.5,1.1
		c0.4,0.6,0.9,0.6,1.5,0.6C171,39.7,171.7,39.5,172.5,39.5z M173.2,42.5c0,0-0.4-0.2-0.6-0.2c-0.2,0.2-0.4,0.2-0.6,0.4
		c0.2,0,0.4,0.4,0.6,0.4S173.2,42.9,173.2,42.5z M178.7,110.8c3-1.7,5.7-4,8.9-5.3c-2.6,3-6,5.1-10,6.4
		C177.9,111.5,178.3,110.9,178.7,110.8z M188.2,105.1c0.2,0,0.2,0,0.2-0.2c-0.2,0.2-0.4,0.4-0.8,0.6
		C187.8,105.3,188,105.3,188.2,105.1z M200.6,96c0.2-0.2,0.4-0.4,0.8-0.6c-0.4,0.2-0.6,0.4-0.8,0.8V96z M203.5,92.6
		c0.2-0.4,0.6-0.6,0.8-0.8c-0.4,0.2-0.6,0.4-0.8,0.6l-0.2,0.2H203.5z M208.4,88.3"/>
	<linearGradient id="SVGID_3_" gradientUnits="userSpaceOnUse" x1="258.9854" y1="-19.4045" x2="258.9854" y2="156.1123">
		<stop  offset="0" style="stop-color:#FFBA00"/>
		<stop  offset="1" style="stop-color:#FF0084"/>
	</linearGradient>
	<path class="st2" d="M219.5,166.1c-3-1.3-5.1-3.2-6.6-5.7c-1.3-2.3-2.6-4.3-4.5-6c-1.7-1.7-2.6-4-3.4-6.2c-0.4-1.5-0.4-2.8-0.2-4.3
		c0.9-3.8,1.7-7.6,3.4-11c1.3-2.8,2.5-5.7,3.6-8.5c1.9-5.7,4.9-10.8,7.4-16.1c3-6.6,6-13.2,8.5-20c0.6-1.5,1.1-2.6,1.9-4
		c1.3-1.9,2.1-4,3.2-6c1.7-3.6,3.4-7.4,5.9-10.6c1.3-2.1,2.5-4.2,3.4-6.4c1.7-3.2,3.2-6.6,5.3-9.8c0.6-1.1,1.3-2.3,1.5-3.6
		c0.2-1.3,0.8-2.5,1.7-3.4c0.8-0.8,0.4-1.5-0.6-1.7c-0.6-0.2-0.9-0.2-1.5-0.4c-1.7-0.4-2.3-1.5-2.5-3s0.6-2.8,2.1-3.6
		c0.6-0.2,1.3-0.4,2.1-0.4c1.5-0.2,3.2-0.4,4.9-0.6c0.8,0,1.7,0,2.5-0.6c0.2,0,0.4-0.4,0.4-0.6s-0.4-0.4-0.6-0.4
		c-1.1-0.4-2.3-0.2-3.4,0c-1.9,0.2-3.6,0.4-5.5,0.4c-0.2,0-0.6-0.2-0.6-0.4c0-0.4,0.4-0.6,0.6-0.6c0.6-0.2,0.9-0.2,1.5-0.2
		c2.1-0.2,4.3-0.4,6.4-0.6c0.8,0,1.7-0.2,2.5-0.2c0.6-0.2,0.9-0.4,1.1-0.9c0.2-0.4-0.2-0.8-1.3-0.8c-2.1,0-4.2,0.2-6.4,0.2
		c-1.1,0-2.3,0.2-3.6,0.2c-1.3,0-2.1-0.8-1.9-2.3c0-1.9,2.1-4.2,4.3-4.7c0.9-0.2,2.1-0.2,3.2-0.2c2.5-0.2,4.9-0.2,7.6-0.6
		c0.6,0,1.1-0.2,1.7-0.2c6.4,0.2,12.9,0.2,19.3,0c1.9,0,3.6,0.2,5.5,0c5.7-0.2,11.2,0.9,16.6,2.1c3.4,0.8,5.1,3.2,6.4,5.9
		c0.4,0.8-0.4,1.5-1.1,1.5c-1.1-0.2-2.5-0.2-3.6-0.6c-6-1.7-12.5-2.3-18.7-2.1c-4.9,0-9.8,0-14.7,0c-1.9,0.2-3,0.6-2.6,1.1
		c0.6,1.1,1.7,0.8,2.5,0.8c7.2,0,14.4,0,21.5,0c4,0.2,7.9,0.6,11.9,1.1c1.3,0.2,2.5,0.8,3.8,1.1c0.4,0.2,0.8,0.4,0.4,0.8
		c-0.4,0.6-0.6,1.1,0.2,1.5c1.7,0.9,2.1,2.5,2.5,4.2c0.2,2.1-0.4,2.8-2.3,2.6s-4-0.4-5.7-0.8c-6.8-1.3-13.6-1.5-20.4-1.3
		c-2.6,0-5.3,0.2-7.9,0.4c-0.8,0-1.5,0.2-2.1,0.4c-0.4,0.2-0.8,0.4-0.8,0.8c-0.2,0.6,0.6,0.8,0.9,0.8c1.1,0,2.3,0,3.6,0
		c5.1,0,10.2,0,15.5,0.2c3.6,0,7,0.2,10.6,0.6c2.3,0.2,4.5,0.8,6.6,1.5c0.4,0.2,0.8,0.4,0.8,0.8c0.2,0.4-0.2,0.6-0.4,0.8
		c-1.9,1.1-4,1.9-6.2,1.5c-6.4-0.8-12.9-0.8-19.3-0.9c0.2-0.8,0.9-0.6,1.3-0.6c1.7,0,3.4,0,5.1,0.2c1.7,0,3.6,0.4,5.3,0
		c0.2-0.2,0.4-0.4,0.4-0.6s-0.2-0.4-0.4-0.4c-0.2-0.2-0.4-0.2-0.6-0.2c-6.6-0.4-13-0.8-19.5,0c-0.8,0-1.7,0.2-2.5,0.4
		c-0.2,0-0.2,0.4-0.4,0.6c0.2,0.2,0.4,0.4,0.6,0.4c0.9,0,1.9,0,2.8,0c0.9,0,1.9,0,2.8,0.2c-1.3,0.8-2.8,0.9-4.3,0.9
		c-3,0-4.7,1.3-5.7,4.2c-1.7,5.5-3.6,11.2-5.1,16.8c0,0.4-0.2,0.8-0.2,1.1c-0.2,1.1,0.6,2.1,1.9,2.1c3-0.2,6,0.4,9.3,0.6
		c1.7,0.2,3.2,0.4,4.9,0.8c2.5,0.4,4.5,1.9,6.2,3.4c0.8,0.6,1.3,1.3,1.7,2.3c0.8,2.3,2.1,4,3.8,5.7c0.4,0.4,0.6,0.8,0.9,1.1
		c0.9,1.3,1.5,2.6,0.9,4.3c-0.2,0.6-0.2,1.1-0.4,1.7c-0.2,0.8,0,1.5,0.6,1.9c0.6,0.4,1.1,0.8,0.9,1.5c-0.2,0.6-0.8,0.9-1.1,1.3
		c-1.1,0.8-2.3,0.9-3.4,0.8c-0.9-0.2-1.9-0.4-2.8-0.6c-3-0.6-6.2-0.8-9.3-0.2c-2.5,0.6-4.9,0.9-7.6,0.9c-1.3,0-2.8,0.4-4.2,0.6
		c-3,0.8-6.2,1.1-9.3,0.9c-2.8-0.4-4.7,0.6-5.9,3.2c-0.2,0.4-0.4,0.8-0.8,1.1c-0.2,0-0.2-0.8-0.6-0.2c0.2,0,0.4,0.2,0.6,0.2
		c-0.2,1.3-0.4,2.6-1.5,3.6c0-0.4,0-0.8-0.2-0.9c-0.2-0.4-0.8-0.2-0.9,0.2c-0.4,0.8-0.9,1.5-1.3,2.5c-1.3,3.6-2.5,7.2-3.8,10.8
		c-0.9,2.3-2.1,4.7-3,7c-1.3,2.5-1.5,5.5-2.3,8.1c-0.2,0.6,0.4,0.8,0.9,0.6c0.4-0.2,0.8-0.2,0.9,0c0.8,1.5,1.9,1.3,3,0.9
		c2.6-0.6,5.1-0.9,7.7-1.7c3.4-1.1,7-1.3,10.6-1.5c2.3,0,4.3,0.4,6.4,1.1c1.9,0.6,3.4,1.5,4.3,3.4c0.8,1.1,1.7,1.9,3,2.5
		c3.2,1.1,5.1,3.4,6,6.6c0.4,1.3,1.1,2.6,1.9,3.8c0.9,0.9,0.6,2.3-0.6,3c-0.9,0.8-2.3,0.9-3.4,0.9c-4.3,0-8.5,1.1-12.7,2.5
		c-1.5,0.6-3,0.9-4.5,1.3c-0.8,0.4-1.7,0.6-2.6,0.9c-1.1,0.6-2.1,0.9-3.4,1.1c-0.8,0-1.5,0.2-2.1,0.6c-1.9,1.5-4.2,2.1-6.4,2.8
		c-1.5,0.6-3,1.1-4.3,1.7c-1.7,0.6-3.2,1.1-4.9,1.5c-1.3,0.2-2.6,0.6-4.2,1.1c-2.5,0.9-5.1,1.1-7.7,0.6
		C224.8,168,222.2,167.3,219.5,166.1z M248.3,114.3c0,1.1-0.2,2.3-0.8,3.4c-0.2,0.2-0.4,0.4-0.9,1.1
		C246.7,116.8,247.5,115.5,248.3,114.3z M251.3,107.2h-0.2c-0.4,2.5-1.3,4.9-2.8,7.2C248.6,111.7,249.6,109.2,251.3,107.2z
		 M268.5,53.7l0.2-0.2l-0.4,0.2H268.5z M269.8,51 M300.6,33.8c0.2,0,0.4-0.2,0.4-0.4s-0.2-0.6-0.4-0.6c-1.1-0.2-2.3-0.6-3.4-0.6
		c-7.7-0.4-15.3-0.2-22.9,0c-0.4,0-0.8,0-1.1,0.2c-0.2,0-0.4,0.2-0.4,0.4c-0.2,0.4,0.2,0.8,0.6,0.8c0.9,0,1.9,0.2,2.8,0
		c3.8,0,7.4-0.2,11.2-0.4c2.6,0.2,5.5,0.4,8.1,0.6C297.2,33.8,298.9,33.8,300.6,33.8z M303.1,46.5v-0.2l-0.2,0.2H303.1z"/>
	<linearGradient id="SVGID_4_" gradientUnits="userSpaceOnUse" x1="350.6475" y1="-19.4045" x2="350.6475" y2="156.1123">
		<stop  offset="0" style="stop-color:#FFBA00"/>
		<stop  offset="1" style="stop-color:#FF0084"/>
	</linearGradient>
	<path class="st3" d="M311.2,166.1c-3-1.3-5.1-3.2-6.6-5.7c-1.3-2.3-2.6-4.3-4.5-6c-1.7-1.7-2.6-4-3.4-6.2c-0.4-1.5-0.4-2.8-0.2-4.3
		c0.9-3.8,1.7-7.6,3.4-11c1.3-2.8,2.5-5.7,3.6-8.5c1.9-5.7,4.9-10.8,7.4-16.1c3-6.6,6-13.2,8.5-20c0.6-1.5,1.1-2.6,1.9-4
		c1.3-1.9,2.1-4,3.2-6c1.7-3.6,3.4-7.4,5.9-10.6c1.3-2.1,2.5-4.2,3.4-6.4c1.7-3.2,3.2-6.6,5.3-9.8c0.6-1.1,1.3-2.3,1.5-3.6
		c0.2-1.3,0.8-2.5,1.7-3.4c0.8-0.8,0.4-1.5-0.6-1.7c-0.6-0.2-0.9-0.2-1.5-0.4c-1.7-0.4-2.3-1.5-2.5-3s0.6-2.8,2.1-3.6
		c0.6-0.2,1.3-0.4,2.1-0.4c1.5-0.2,3.2-0.4,4.9-0.6c0.8,0,1.7,0,2.5-0.6c0.2,0,0.4-0.4,0.4-0.6s-0.4-0.4-0.6-0.4
		c-1.1-0.4-2.3-0.2-3.4,0c-1.9,0.2-3.6,0.4-5.5,0.4c-0.2,0-0.6-0.2-0.6-0.4c0-0.4,0.4-0.6,0.6-0.6c0.6-0.2,0.9-0.2,1.5-0.2
		c2.1-0.2,4.3-0.4,6.4-0.6c0.8,0,1.7-0.2,2.5-0.2c0.6-0.2,0.9-0.4,1.1-0.9c0.2-0.4-0.2-0.8-1.3-0.8c-2.1,0-4.2,0.2-6.4,0.2
		c-1.1,0-2.3,0.2-3.6,0.2c-1.3,0-2.1-0.8-1.9-2.3c0-1.9,2.1-4.2,4.3-4.7c0.9-0.2,2.1-0.2,3.2-0.2c2.5-0.2,4.9-0.2,7.6-0.6
		c0.6,0,1.1-0.2,1.7-0.2c6.4,0.2,12.9,0.2,19.3,0c1.9,0,3.6,0.2,5.5,0c5.7-0.2,11.2,0.9,16.6,2.1c3.4,0.8,5.1,3.2,6.4,5.9
		c0.4,0.8-0.4,1.5-1.1,1.5c-1.1-0.2-2.5-0.2-3.6-0.6c-6-1.7-12.5-2.3-18.7-2.1c-4.9,0-9.8,0-14.7,0c-1.9,0.2-3,0.6-2.6,1.1
		c0.6,1.1,1.7,0.8,2.5,0.8c7.2,0,14.4,0,21.5,0c4,0.2,7.9,0.6,11.9,1.1c1.3,0.2,2.5,0.8,3.8,1.1c0.4,0.2,0.8,0.4,0.4,0.8
		c-0.4,0.6-0.6,1.1,0.2,1.5c1.7,0.9,2.1,2.5,2.5,4.2c0.2,2.1-0.4,2.8-2.3,2.6s-4-0.4-5.7-0.8c-6.8-1.3-13.6-1.5-20.4-1.3
		c-2.6,0-5.3,0.2-7.9,0.4c-0.8,0-1.5,0.2-2.1,0.4c-0.4,0.2-0.8,0.4-0.8,0.8c-0.2,0.6,0.6,0.8,0.9,0.8c1.1,0,2.3,0,3.6,0
		c5.1,0,10.2,0,15.5,0.2c3.6,0,7,0.2,10.6,0.6c2.3,0.2,4.5,0.8,6.6,1.5c0.4,0.2,0.8,0.4,0.8,0.8c0.2,0.4-0.2,0.6-0.4,0.8
		c-1.9,1.1-4,1.9-6.2,1.5c-6.4-0.8-12.9-0.8-19.3-0.9c0.2-0.8,0.9-0.6,1.3-0.6c1.7,0,3.4,0,5.1,0.2c1.7,0,3.6,0.4,5.3,0
		c0.2-0.2,0.4-0.4,0.4-0.6s-0.2-0.4-0.4-0.4c-0.2-0.2-0.4-0.2-0.6-0.2c-6.6-0.4-13-0.8-19.5,0c-0.8,0-1.7,0.2-2.5,0.4
		c-0.2,0-0.2,0.4-0.4,0.6c0.2,0.2,0.4,0.4,0.6,0.4c0.9,0,1.9,0,2.8,0c0.9,0,1.9,0,2.8,0.2c-1.3,0.8-2.8,0.9-4.3,0.9
		c-3,0-4.7,1.3-5.7,4.2c-1.7,5.5-3.6,11.2-5.1,16.8c0,0.4-0.2,0.8-0.2,1.1c-0.2,1.1,0.6,2.1,1.9,2.1c3-0.2,6,0.4,9.3,0.6
		c1.7,0.2,3.2,0.4,4.9,0.8c2.5,0.4,4.5,1.9,6.2,3.4c0.8,0.6,1.3,1.3,1.7,2.3c0.8,2.3,2.1,4,3.8,5.7c0.4,0.4,0.6,0.8,0.9,1.1
		c0.9,1.3,1.5,2.6,0.9,4.3c-0.2,0.6-0.2,1.1-0.4,1.7c-0.2,0.8,0,1.5,0.6,1.9c0.6,0.4,1.1,0.8,0.9,1.5c-0.2,0.6-0.8,0.9-1.1,1.3
		c-1.1,0.8-2.3,0.9-3.4,0.8c-0.9-0.2-1.9-0.4-2.8-0.6c-3-0.6-6.2-0.8-9.3-0.2c-2.5,0.6-4.9,0.9-7.6,0.9c-1.3,0-2.8,0.4-4.2,0.6
		c-3,0.8-6.2,1.1-9.3,0.9c-2.8-0.4-4.7,0.6-5.9,3.2c-0.2,0.4-0.4,0.8-0.8,1.1c-0.2,0-0.2-0.8-0.6-0.2c0.2,0,0.4,0.2,0.6,0.2
		c-0.2,1.3-0.4,2.6-1.5,3.6c0-0.4,0-0.8-0.2-0.9c-0.2-0.4-0.8-0.2-0.9,0.2c-0.4,0.8-0.9,1.5-1.3,2.5c-1.3,3.6-2.5,7.2-3.8,10.8
		c-0.9,2.3-2.1,4.7-3,7c-1.3,2.5-1.5,5.5-2.3,8.1c-0.2,0.6,0.4,0.8,0.9,0.6c0.4-0.2,0.8-0.2,0.9,0c0.8,1.5,1.9,1.3,3,0.9
		c2.6-0.6,5.1-0.9,7.7-1.7c3.4-1.1,7-1.3,10.6-1.5c2.3,0,4.3,0.4,6.4,1.1c1.9,0.6,3.4,1.5,4.3,3.4c0.8,1.1,1.7,1.9,3,2.5
		c3.2,1.1,5.1,3.4,6,6.6c0.4,1.3,1.1,2.6,1.9,3.8c0.9,0.9,0.6,2.3-0.6,3c-0.9,0.8-2.3,0.9-3.4,0.9c-4.3,0-8.5,1.1-12.7,2.5
		c-1.5,0.6-3,0.9-4.5,1.3c-0.8,0.4-1.7,0.6-2.6,0.9c-1.1,0.6-2.1,0.9-3.4,1.1c-0.8,0-1.5,0.2-2.1,0.6c-1.9,1.5-4.2,2.1-6.4,2.8
		c-1.5,0.6-3,1.1-4.3,1.7c-1.7,0.6-3.2,1.1-4.9,1.5c-1.3,0.2-2.6,0.6-4.2,1.1c-2.5,0.9-5.1,1.1-7.7,0.6
		C316.5,168,313.8,167.3,311.2,166.1z M339.9,114.3c0,1.1-0.2,2.3-0.8,3.4c-0.2,0.2-0.4,0.4-0.9,1.1
		C338.4,116.8,339.2,115.5,339.9,114.3z M342.9,107.2h-0.2c-0.4,2.5-1.3,4.9-2.8,7.2C340.3,111.7,341.2,109.2,342.9,107.2z
		 M360.1,53.7l0.2-0.2l-0.4,0.2H360.1z M361.5,51 M392.3,33.8c0.2,0,0.4-0.2,0.4-0.4s-0.2-0.6-0.4-0.6c-1.1-0.2-2.3-0.6-3.4-0.6
		c-7.7-0.4-15.3-0.2-22.9,0c-0.4,0-0.8,0-1.1,0.2c-0.2,0-0.4,0.2-0.4,0.4c-0.2,0.4,0.2,0.8,0.6,0.8c0.9,0,1.9,0.2,2.8,0
		c3.8,0,7.4-0.2,11.2-0.4c2.6,0.2,5.5,0.4,8.1,0.6C388.9,33.8,390.6,33.8,392.3,33.8z M394.7,46.5v-0.2l-0.2,0.2H394.7z"/>
	<linearGradient id="SVGID_5_" gradientUnits="userSpaceOnUse" x1="447.5695" y1="-19.4045" x2="447.5695" y2="156.1123">
		<stop  offset="0" style="stop-color:#FFBA00"/>
		<stop  offset="1" style="stop-color:#FF0084"/>
	</linearGradient>
	<path class="st4" d="M402.1,170.5c-1.1-0.6-2.3-1.1-3.4-1.7c-4.3-1.7-7.4-4.5-8.5-9.1c-0.4-1.5-1.1-2.8-2.3-4
		c-0.8-0.6-1.3-1.3-1.7-2.3c-0.8-2.3,0-4,2.5-4.7c1.3-0.4,2.6-0.6,3.8-0.8c0.9-0.4,1.9-0.6,2.8-0.9c1.1-0.6,1.5-1.5,0.6-2.6
		c-0.4-0.6-0.9-0.9-1.5-1.5c-1.3-1.7-1.3-2.6,0-4.5c0.8-1.1,1.7-2.1,2.5-3c0.2-0.2,0.2-0.6,0-0.8c-0.2-0.4-0.6-0.2-0.9,0
		c-0.9,0.8-1.9,1.5-3,2.5c-0.2,0-0.6,0.2-0.6,0c-0.4-0.2-0.2-0.6,0-0.9c0.6-1.1,1.3-2.1,2.1-3.2c0.2-0.2,0.2-0.6,0-0.6
		c0-0.2-0.4-0.2-0.6-0.2c-0.9,0.8-1.9,1.7-2.8,2.5c-1.1,0.9-2.1,0.6-2.5-1.1c-0.4-1.7-0.4-3.4,0.6-5.1c1.5-2.6,2.8-5.3,4.3-7.9
		c2.1-4,4.2-7.9,6-12.1c2.1-4.3,4.7-8.5,6.8-12.7c3.6-7.4,7.4-14.6,10.2-22.1c2.8-7.4,6-14.4,9.8-21.2c0.8-1.7,1.7-3.2,2.8-4.5
		c1.9-1.9,2.8-4.2,3.8-6.4c0.9-2.1,0-3.4-2.1-3.6c-0.8,0-1.7,0-2.5,0c-0.6-0.2-1.3-0.2-1.3-0.6c-0.6-1.5-2.3-1.7-3.4-2.5
		c-0.8-0.6-1.1-1.7-0.8-2.6c0.6-1.3,0.4-2.6,0-4c-0.6-1.5-0.2-2.8,0.8-4.2c0.8-1.1,1.7-1.9,2.8-2.6c4.7-2.6,9.8-4.9,15.3-6
		c1.1-0.2,2.1-0.4,3-0.8c3.8-1.9,7.6-2.3,11.5-2.5c0.8,0,1.5,0,2.3-0.2c4.3-0.4,8.5,0.2,12.7,0.9c6.6,1.1,11.9,4.3,16.6,8.7
		c3.8,3.4,6.8,7.4,9.1,12.1c4.9,10.2,8.9,20.6,10.8,31.8c0.6,2.8,0.9,5.5,0.9,8.3c-0.2,0.9,0.2,2.1,0.4,3c0.4,3.6-0.2,7-0.4,10.4
		c0,0.8-0.4,1.5-0.6,2.1c-0.8,1.3-1.1,2.6-1.1,4.2c-0.2,1.7-0.8,3.2-1.7,4.7c-0.4,0.6-1.1,1.5-1.1,2.1c0.4,2.3-0.9,3.4-2.5,4.7
		c-0.9,0.8-1.5,2.1-2.1,3.2c-0.8,1.5-1.7,2.8-2.8,4.2c-7.7,9.3-16.8,17.4-26.1,24.9c-5.5,4.5-11.2,8.7-17,12.9
		c-1.1,0.8-2.1,1.5-2.6,2.6c-4.3,0.8-7.4,3.4-10.2,6.4c-1.1,0-2.3,0.6-3.2,1.1c-4.9,2.5-9.6,4.9-14,8.1c-0.8,0.4-1.5,0.9-2.3,0.9
		c-3.2-0.2-6,1.1-9.1,1.9c-1.7,0.6-3.2,0.8-4.9,0.8C405.5,172,403.8,171.4,402.1,170.5z M409.1,137.8c0-0.2-0.2-0.4-0.2-0.6
		c0-0.2-0.2-0.2-0.4-0.2c-0.2,0.2-0.6,0.2-0.9,0.4c-1.9,1.5-4,3.2-5.9,4.7c-0.4,0.4-0.8,0.9-1.1,1.3c-0.2,0.2-0.2,0.6,0,0.8
		c0.2,0.4,0.6,0.4,0.8,0.4C404.9,143.3,407,140.6,409.1,137.8z M405.7,120c0-0.2,0-0.2-0.2-0.4h-0.2c-0.4,0.8-0.8,1.5-0.9,2.3
		C404.9,121.3,405.5,120.8,405.7,120z M411,152.5c3.4-1.3,6.4-3,9.6-4.7c14.7-7.9,28-18.1,40.3-29.7c1.1-0.9,2.1-2.3,3-3.4
		c-1.1,0.4-2.1,1.1-3,1.9c-1.7,1.5-3.6,3-5.5,4.5c-6.6,5.5-13.4,10.6-20.6,15.5c-7.6,4.9-15.1,9.4-23.2,13.6c-0.9,0.6-1.9,1.1-3,1.9
		c0,0,0,0.4,0,0.6c0,0.2,0.2,0.2,0.4,0.2C409.5,152.7,410.2,152.7,411,152.5z M421.9,150.6c11.9-6,22.7-13.8,32.9-22.3
		c1.1-0.8,2.1-1.7,2.6-2.8c1.1-0.4,2.1-1.1,2.8-2.3c0.2-0.2,0.4-0.4,0.8-0.8c0.2-0.2,0.4-0.4,0.8-0.6c-0.4,0.2-0.6,0.4-0.8,0.6
		c-0.2,0.4-0.6,0.6-0.8,0.8c-1.1,0.4-2.3,1.1-3,2.1c-1.7,0.6-3,1.9-4.3,2.8c-11.2,8.7-22.9,16.3-35,23.1c-0.6,0.2-0.9,0.6-1.3,0.8
		c-0.2,0.2-0.2,0.4-0.2,0.6c0.2,0.2,0.4,0.4,0.6,0.2C418.9,152.3,420.4,151.4,421.9,150.6z M418.2,134.6c2.3-3,4.7-5.9,6.4-9.1
		c0.4-0.6,0.6-1.1,0.8-1.5c-0.2-0.4-0.2-0.6-0.2-0.6c-0.2,0-0.6,0-0.6,0.2c-0.6,0.4-0.9,0.8-1.3,1.3c-1.5,2.1-3,4.3-4.5,6.6
		c-0.6,0.8-0.9,1.5-1.3,2.3c-0.2,0.2-0.2,0.8,0,0.9C417.6,135.1,418,134.8,418.2,134.6z M421.2,163.9c3.6-1.1,7-2.8,10.2-4.5
		c6.2-3.4,12.1-7.2,18.1-11.2c1.9-1.3,4-2.6,5.9-4c7.4-5.5,14.4-11.2,21.2-17.4c1.9-1.9,3.8-3.8,5.7-5.9c0.4-0.2,0.4-0.6,0.6-0.8
		c0-0.2-0.2-0.4-0.2-0.4c-0.2,0-0.2,0-0.4,0c-1.1,0.2-1.9,0.9-2.6,1.7c-3,2.5-6,5.1-9.1,7.6c-9.6,7.9-19.8,15.1-30.2,21.9
		c-6.8,4.2-13.6,8.1-21,11.2c-0.4,0.2-0.8,0.4-1.1,0.8c-0.2,0.2-0.6,0.6-0.4,0.9c0,0.6,0.6,0.6,0.9,0.6
		C419.7,164.2,420.4,164.1,421.2,163.9z M424,132.7c3.6-2.5,7.2-4.5,10.8-7.2c4-3,7.9-6.4,11.9-9.6c0.9-0.8,2.1-1.5,2.8-2.3
		c1.9-2.5,4.3-4.3,7-6.2c4.3-3.2,7.4-7.7,11.5-11.2c0.8-0.6,1.1-1.3,1.7-2.3c1.3-1.9,2.8-3.8,4.3-5.7c1.3-1.1,2.5-2.5,3.2-4
		c2.8-5.3,6-10.8,8.1-16.6c1.1-4,2.1-7.9,2.6-11.9c0.2-1.9,0-3.6-0.9-5.1c-1.7-3-3.8-5.5-6.8-7.4c-3.8-2.5-7.9-4.2-12.5-5.1
		c-3.4-0.6-6.6-1.1-10-1.7c-1.3-0.4-2.6-0.4-4.2,0c-1.9,0.4-3.8,0.8-5.7,0.6c-2.8-0.6-5.3,0.8-7.9,1.1c-1.3,0.4-1.5,1.5-0.6,2.3
		c1.1,0.9,2.3,1.9,2.6,3.6c0.6,1.7,1.5,2.8,3,3.4c1.5,0.9,2.5,2.3,3,3.8c0.8,1.3,0.9,2.8,1.1,4.2c0.2,1.5,0.4,2.8,0.4,4.3
		c0,0.8,0.2,1.5,1.1,1.7c1.1,0.4,1.5,1.1,1.3,2.3c-0.6,3-0.6,6.4-2.1,9.3c-0.8,1.1-1.1,2.5-1.1,3.8c0,0.9-0.2,1.9-0.9,2.6
		c-1.3,1.1-1.9,2.6-2.5,4.3c-0.2,0.9,0.4,0.9,1.1,0.8c-0.6,1.5-1.1,3.2-1.9,4.7c-1.1,2.3-2.1,4.9-4,6.8c-0.4-0.4-0.8-0.6-1.1-0.4
		c-0.9,0.6-1.5,1.3-1.9,2.3c-1.3,2.1-2.5,4.3-3.4,6.6c-0.8,1.7-1.5,3.2-2.6,4.7c-0.6,0.8-1.1,1.5-1.5,2.5c-0.4,0.6-0.9,1.3-0.8,2.3
		c1.1,0.2,1.5-0.9,2.1-1.5c0.4-0.4,0.6-0.8,1.1-0.8c0,0.2,0.2,0.4,0,0.6c-1.1,2.3-2.5,4.7-4,6.6c-0.2-0.2-0.2-0.4-0.4-0.6
		c-0.4-0.6-0.8-0.4-1.1,0s-0.9,0.8-0.6,1.5c0,0.2,0.4,0.2,0.6,0c0.6-0.2,0.9-0.6,1.5-0.9c-0.6,3.2-2.3,5.9-3.8,8.5
		c-0.9,1.5-1.9,2.8-2.1,4.5c0,0.2,0,0.6,0.2,0.8C423.3,132.9,423.6,132.9,424,132.7z M428.7,167.1l-0.2,0.2L428.7,167.1z
		 M431.4,26.1c8.1-2.8,16.6-4.5,25.1-5.3c0.8-0.2,1.5,0,1.9-0.8c0.4-0.4-0.6-0.8-1.9-0.9c-0.2,0-0.4,0-0.8,0c-0.2,0-0.6,0-1.1,0.2
		c-8.3,0.6-16.3,2.6-24,5.5c-0.6,0.2-0.9,0.4-1.5,0.8c-0.4,0.2-0.6,0.4-0.4,0.8c0,0.2,0.4,0.2,0.6,0.2
		C430.1,26.3,430.6,26.3,431.4,26.1z M431.4,35.7c6.8-1.3,13.6-2.5,20.6-3.2c0.8,0,1.5-0.2,2.5-0.4c0.2-0.2,0.4-0.2,0.6-0.4
		c0-0.2,0-0.2,0-0.4c0,0,0-0.2-0.2-0.2c-0.6-0.2-1.1-0.4-1.7-0.4c-7.6,0.4-15.1,1.5-22.7,3.2c-0.4,0.2-0.8,0.4-1.1,0.8
		c-0.2,0-0.4,0.4-0.2,0.6c0,0.2,0.2,0.4,0.4,0.4c0.4,0.2,0.6,0.2,0.8,0.2C430.6,35.7,431,35.7,431.4,35.7z M431.2,28.2
		c6.2-1.7,12.3-3.2,18.5-4.3c0.9-0.2,1.9-0.2,2.8-0.9c-1.3-0.4-2.6-0.4-4-0.2c-5.7,0.8-11.2,2.3-16.6,4.2c-0.8,0.2-1.5,0.6-2.3,0.9
		c-0.2,0.2-0.4,0.4-0.2,0.6c0.2,0,0.2,0.2,0.4,0.2C430.3,28.4,430.8,28.4,431.2,28.2z M433.8,164.4c-0.2,0-0.2,0.2-0.2,0.2
		c-0.2,0.2-0.4,0.2-0.8,0.4C433.3,164.8,433.5,164.6,433.8,164.4z M433.1,165h-0.2H433.1z M438,162.2c-0.4,0.2-0.9,0.4-1.5,0.6
		C437.1,162.5,437.4,162.4,438,162.2z M436.7,162.7h-0.2H436.7z M436.9,103.6c0.2-0.2,0.4-0.2,0.4-0.4c0,0.2-0.2,0.4-0.2,0.6
		c-0.2,0.2-0.2,0.2-0.4,0L436.9,103.6z M440.8,96c-0.2,2.8-2.1,4.9-3.6,7.2C437.8,100.4,439,97.9,440.8,96z M438.8,161.4
		c-0.2,0.2-0.6,0.4-0.8,0.8C438.2,161.8,438.6,161.6,438.8,161.4z M441,159.1h-0.2c1.7,0,3.2-0.8,4.5-1.9c1.9-1.5,3.8-3,5.7-4.5
		c1.1,0,2.1-0.8,3.2-1.3c1.3-0.9,3-1.9,4.5-2.8c0.2,0,0.6-0.2,0.6,0c0.4,0.4,0,0.6-0.2,0.8c-2.1,1.7-4.3,3.4-6.8,4.7
		c-1.5,0.6-2.8,1.7-4.2,2.6c-1.9,1.1-3.6,2.3-5.5,3.4c-1.1,0.8-2.5,1.3-4,1.3C439.5,160.6,440.3,159.9,441,159.1z M440.1,37
		c0-0.2,0-0.4,0-0.4c-0.2,0-0.6,0-0.6,0c-0.4,0.2-0.4,0.6,0,0.6C439.7,37.2,439.9,37,440.1,37z M442,91.3c0.2-0.2,0.2-0.2,0.2-0.4
		s-0.2,0-0.4,0.2c0,0.2,0,0.4-0.2,0.6C441.8,91.5,442,91.3,442,91.3z M447.5,83c-0.4,0.6-0.6,1.1-0.8,1.5
		C446.9,83.9,447.1,83.5,447.5,83z M447.5,83h-0.2H447.5z M463,145.9c0.2-0.8,0.9-1.1,1.5-1.5c2.6-2.1,5.5-4.2,8.3-6.2
		c4.7-3.6,9.1-7.6,13.4-11.7c4.2-3.8,7.9-7.7,11.2-12.1c0.6-0.6,1.1-1.1,1.7-1.9c-0.6,2.5-2.3,4.3-3.8,6c-2.3,2.8-4.7,5.7-7.4,8.3
		c-3.4,3.2-6.8,6.2-10.6,9.1c-4,3.4-8.3,6.4-12.5,9.6c-0.4,0.4-0.9,0.6-1.5,0.8h-0.2C463,146.1,463,145.9,463,145.9z M477.5,104
		c0.8-0.6,1.1-1.3,1.5-2.3c0.2-0.2,0.4-0.4,0.8-0.8c-0.2,0.4-0.6,0.6-0.8,0.8c-0.8,0.6-1.5,1.1-2.1,2.1l0.2,0.2
		C477.1,104.1,477.3,104.1,477.5,104z M499.8,111.7c-0.2,0.4-0.4,0.6-0.8,0.8C499.4,112.3,499.6,112.1,499.8,111.7z M500.6,110.4
		c-0.2,0.4-0.4,0.9-0.8,1.3C500,111.3,500.4,110.8,500.6,110.4z M500.9,109.4c0,0.2,0,0.4,0,0.4c-0.2,0.2-0.2,0.4-0.4,0.6
		C500.8,110,500.9,109.8,500.9,109.4z"/>
	<linearGradient id="SVGID_6_" gradientUnits="userSpaceOnUse" x1="615.9256" y1="-19.4045" x2="615.9256" y2="156.1123">
		<stop  offset="0" style="stop-color:#FFBA00"/>
		<stop  offset="1" style="stop-color:#FF0084"/>
	</linearGradient>
	<path class="st5" d="M585,168.2c-1.5-0.8-2.8-1.7-4.2-2.8c-3.8-3.8-7.4-7.6-10.4-11.9c-3.6-4.9-5.5-10.6-5.9-16.6
		c-0.2-2.6-0.4-5.3-0.6-7.9c0-0.4,0-0.9,0.2-1.3c0.4-3.8,0.8-7.7,1.3-11.5c0.6-3.4,1.3-6.8,2.3-10c0.9-4.2,1.9-8.1,4.2-11.9
		c0.2-0.4,0.4-0.8,0.6-1.3c1.5-5.3,4.7-10,6.8-15.3c0.4-0.9,0.9-1.9,1.5-2.8c3-4.7,5.7-9.4,8.3-14.2c1.1-2.3,2.6-4.2,4.2-5.9
		c4-4.5,7.6-9.3,11.5-13.8c0.2-0.4,0.4-0.9,0.8-1.1c4.5-3.6,7.6-8.5,11.9-12.1c0.2,0,0.4-0.2,0.6-0.4c4-2.8,7.7-5.9,11.9-8.5
		c3.8-2.5,8.1-3.6,12.5-4.3c3.2-0.6,6.2,0.2,8.9,1.9c3.2,1.9,6,4.3,8.1,7.6c2.5,3.8,4.7,7.7,6.2,12.1c2.1,5.3,2.6,11,1.3,16.4
		c-0.8,3.4-1.7,6.6-3.8,9.3c-1.1,1.5-1.9,3-2.5,4.7c-0.6,0.9-0.9,1.9-1.5,3c0-0.2,0-0.2-0.2-0.4c0,0,0,0-0.2,0
		c0.2,0,0.4,0.2,0.4,0.2c-0.6,0.9-1.5,1.5-2.6,1.9c-0.9,0.6-1.9,1.3-2.3,2.5c-0.4,0.2-0.6,0.6-0.8,0.8c-1.5,0.4-2.8,1.3-4.2,2.1
		c-0.6,0.2-0.9,0.4-1.3,0.6c-0.4,0-0.8,0-0.9-0.2c-0.4-0.4-0.2-0.8,0-0.9c0.4-0.6,0.9-0.9,1.1-1.3c0.2-0.2-0.2-0.6-0.2-0.6
		c-1.1-0.2-1.9,0.4-2.8,0.8c-1.5,0.4-2.6-0.2-2.8-1.7c-0.2-1.9-0.4-3.8-1.3-5.5c-0.6-0.8-0.4-1.9,0-2.8c0.4-1.1,0.9-2.1,1.5-3.2
		c1.7-3.2,3.6-6.4,5.5-9.6c1.5-3,2.3-6.4,3.6-9.6c0.6-1.3,1.1-2.8,1.5-4.2c0.6-1.9-0.2-2.6-1.9-2.3s-3.4,0.8-4.9,1.1
		c0.8-0.4,1.5-0.9,2.5-1.3c0.2-0.2,0.6-0.6,0.2-0.9c0,0-0.4-0.2-0.6,0c-5.3,1.5-9.6,4.3-12.9,8.9v-0.2c-1.5,0.6-2.5,1.5-3.4,2.6
		c-1.9,2.1-3.8,4.2-5.9,6.2c-1.9,1.9-3.6,4.2-5.1,6.4c-1.3,1.9-2.8,3.8-4.2,5.7c-1.5,1.9-3.2,4-3.8,6.4c-0.2,0.2-0.6,0.4-0.8,0.8
		l-0.2,0.2c0.2,0.2,0.4,0.2,0.4,0c0.2-0.4,0.4-0.8,0.6-0.9c0.8-0.6,1.5-0.9,1.9-1.3c-1.3,3.4-3.2,6.2-5.5,9.3c0-0.6,0-0.9,0-1.5
		c0.2-0.4,0.4-0.9,0.8-1.3c-0.2,0.4-0.6,0.9-0.8,1.3c-1.3,0.9-2.5,2.1-3,3.4c-0.2,0.4-0.2,0.9,0.2,0.8c1.3-0.4,1.7,0,1.1,1.1
		c-0.8,1.1-1.5,2.5-2.6,3.4c-0.2,0-0.6,0-0.8,0c-0.8,0.8-1.1,1.7-1.3,2.8c0.6-0.9,1.1-1.9,1.3-2.8c0.2,0,0.6,0,0.8,0
		c-0.8,3.4-2.3,6.4-4.3,9.3c0-0.2,0.2-0.6,0.2-0.9c0-0.2,0-0.6-0.2-0.6c-0.2-0.2-0.6,0-0.6,0c-0.6,0.4-0.8,0.9-0.8,1.5
		c0,0.6,0.4,0.6,0.8,0.4c0.2,0,0.4-0.2,0.6-0.4c-0.2,1.5-0.9,2.6-2.1,3.6c-0.2,0-0.6,0-0.8,0c-0.6,1.7-1.3,3.4-1.9,5.1
		c-0.4,0.8-0.9,1.5,0.4,1.9c0.2,0,0.4,0.4,0.2,0.6c0,0.6-0.2,0.9-0.2,1.5c0,2.3-3,3-2.5,5.5c0.4,2.1-0.8,4-1.1,6s-0.9,4.2-1.3,6.2
		c-0.9,4.7-1.7,9.6-1.9,14.6c-0.2,3.2,0.2,6.4,0.4,9.6c0,0.4,0.2,0.8,0.2,1.1c0.8,2.5,1.7,3,4.3,2.6c3.4-0.8,6.6-2.5,9.8-4.2
		c4.5-2.6,8.5-6.2,12.5-9.6c5.1-4.2,9.8-8.7,14.6-13.4c2.3-2.3,4.3-4.9,6.4-7.6c1.1-1.3,2.5-1.9,4.2-1.7c0.4,0,0.9,0.4,0.8,0.9
		c-0.4,1.5-0.6,3-0.9,4.5c0.8-0.8,1.7-1.3,2.5-1.9c1.9-1.1,3.6-0.2,3.8,1.9c0,0.9,0,1.7-0.2,2.5c0,0.6-0.2,1.1-0.4,1.7
		c-0.2,0.6-0.4,1.1-0.6,1.5c-2.1,1.5-3.6,3.4-4.9,5.3c-1.9,2.1-3.6,4.2-5.5,6.2c-6.2,7-13.2,13.4-20.6,19.3
		c-0.8,0.8-1.5,1.5-2.3,2.3v0.6c0.2,0.2,0.6,0.2,0.8,0.2c1.5-0.6,2.6-1.5,3.8-2.5c7.6-5.7,14.2-12.3,20.2-19.5
		c3-3.6,6.2-7.4,8.5-11.9c0.2-0.4,0.4-0.9,0.6-1.5c0.4,0,0.8-0.2,0.9-0.4c0.9-0.2,1.5,0.2,1.1,0.8c-0.4,1.1-0.8,2.1-1.3,3
		c-1.9,2.6-3.8,5.1-5.7,7.7c-4.2,5.5-8.9,10.4-13.8,15.1c-0.8,0.9-1.5,1.9-2.3,2.8c-0.4,0.4-0.2,0.8,0.2,1.1
		c-0.8,0.6-1.5,0.9-2.1,1.5c-0.9-0.2-1.7-0.2-2.3,0.6c-0.8,0.8-1.5,1.7-2.3,2.6c-0.8,0.8-1.3,1.7-2.1,2.5h0.2
		c-1.7,1.5-3.4,2.6-5.5,3.6c-3,1.5-5.9,3.2-9.3,3.8c-2.6,0.4-5.1,0.6-7.7,0.2C592.2,170.9,588.4,170.1,585,168.2z M599,98.7
		c-0.2,0.4-0.6,0.4-0.8,0C598.5,98.7,598.8,98.7,599,98.7z M607.9,154.6c1.1-0.6,2.3-1.1,3.4-1.9c1.9-1.1,3.8-2.5,5.7-3.8
		c-0.9,1.3-1.9,2.5-2.8,3.8c-0.4,0.2-0.6,0.4-0.8,0.6c-0.6,0.4-0.9,0.6-1.5,0.8c0.6-0.2,0.9-0.4,1.5-0.8c0.2-0.2,0.4-0.4,0.8-0.8
		c1.5-0.4,2.6-1.3,4-2.3c5.1-4.2,10.2-8.9,14.7-13.8c0.8-0.9,1.7-1.9,2.1-3.2c0.2-0.2,0.4-0.6,0.8-0.8c0.2-0.2,0.4-0.6,0.8-0.8
		c-0.4,0.4-0.6,0.6-0.8,0.8c-0.2,0.2-0.6,0.6-0.8,0.8c-1.1,0.6-1.9,1.3-2.6,2.3c-2.3,2.1-4.3,4.2-6.4,6.2c-0.9,0.8-1.9,1.7-3.2,2.3
		c3.4-3.6,7-7.2,10.4-10.8c0.9-0.9,2.1-2.1,2.6-3.6c-1.7,0.8-2.8,2.3-4.2,3.4c-6.8,7-14.2,13.4-22.1,19.3c-0.6,0.6-1.3,1.1-1.9,1.7
		c0,0,0,0.4,0,0.6C607.5,154.6,607.9,154.8,607.9,154.6z M610.4,48.6c0.2-0.6,0.6-1.1,0.8-1.7c-0.4,0.6-0.8,0.9-1.1,1.3v0.4
		C610.2,48.6,610.4,48.6,610.4,48.6z M616.4,66.9c0.4-0.6,1.1-0.9,1.1-0.6s-0.2,0.8-0.4,0.9c-0.6,0.8-1.1,1.3-1.7,1.9
		C615.9,68.6,616,67.7,616.4,66.9z M621.3,145.3c-1.3,1.5-2.6,2.8-4.3,3.8C618.1,147.6,619.6,146.3,621.3,145.3z M622.1,144.8
		c-0.4,0.2-0.6,0.4-0.8,0.8C621.5,145.2,621.7,145,622.1,144.8z M622.1,161.2c-0.4,0.2-0.6,0.6-0.8,0.8
		C621.5,161.8,621.7,161.4,622.1,161.2z M622.7,144c-0.2,0.2-0.4,0.4-0.8,0.8C622.3,144.4,622.5,144.2,622.7,144z M622.7,160.5
		c-0.2,0.4-0.4,0.6-0.6,0.8C622.3,161,622.5,160.6,622.7,160.5z M623.4,159.7v0.2c-0.2,0.2-0.4,0.4-0.8,0.6
		C623,160.3,623.2,160.1,623.4,159.7z M624.2,159.1c-0.2,0.2-0.4,0.4-0.8,0.6C623.6,159.5,624,159.3,624.2,159.1z M624.9,33.3
		c1.5-0.4,2.6-1.5,3.6-2.8c0.2,0,0.4-0.2,0.6-0.2c0.2-0.2,0.4-0.4,0-0.4c0,0-0.2,0-0.2,0.2c-0.2,0-0.4,0.2-0.4,0.4
		C627,31,625.7,31.9,624.9,33.3c-0.2,0.4-0.6,0.6-0.8,0.8C624.4,33.8,624.5,33.5,624.9,33.3z M624.9,158.4c-0.2,0.2-0.6,0.4-0.8,0.8
		C624.4,158.8,624.5,158.6,624.9,158.4z M626.2,54.8c-0.2,0.2-0.2,0.4-0.4,0.6c0,0,0,0.2-0.2,0.4C625.9,55.4,626.1,55.2,626.2,54.8z
		 M627,54.2c-0.2,0.2-0.4,0.4-0.8,0.6C626.4,54.6,626.8,54.4,627,54.2z M627.8,53.5c-0.2,0.2-0.6,0.4-0.8,0.8
		C627.2,53.9,627.6,53.7,627.8,53.5z M627.8,156.3c-0.2,0.2-0.6,0.4-0.8,0.6C627.2,156.7,627.6,156.5,627.8,156.3z M628.5,52.7
		c-0.2,0.2-0.6,0.6-0.8,0.8C627.9,53.1,628.1,52.9,628.5,52.7z M628.5,155.5c-0.2,0.2-0.6,0.4-0.8,0.6
		C627.9,155.9,628.1,155.7,628.5,155.5z M629.1,52h0.2c-0.4,0.4-0.6,0.6-0.8,0.8C628.7,52.5,628.9,52.2,629.1,52z M629.3,154.8
		c-0.4,0.2-0.6,0.4-0.8,0.8C628.7,155.2,628.9,155,629.3,154.8z M629.8,51.2c-0.2,0.4-0.4,0.6-0.6,0.8h-0.2
		C629.5,51.8,629.7,51.6,629.8,51.2z M629.8,154c-0.2,0.2-0.4,0.6-0.6,0.8h-0.2C629.5,154.6,629.7,154.2,629.8,154z M630.4,50.5
		c0,0.2,0,0.2,0,0.4c-0.2,0.2-0.4,0.2-0.6,0.4C630,51,630.2,50.8,630.4,50.5z M630.6,153.3c-0.2,0.4-0.4,0.6-0.8,0.8
		C630.2,153.8,630.4,153.5,630.6,153.3z M635.7,43.3v0.2c1.1-0.4,2.1-1.1,3-1.9c1.3-0.9,2.6-1.9,4.2-2.5c-2.1,2.6-5.1,4.3-7.6,6.6
		c-0.8,0.8-1.7,1.3-2.6,1.9C633.2,45.9,634.9,45,635.7,43.3z M634.2,149.7c-0.2,0.4-0.4,0.6-0.8,0.8
		C633.8,150.3,634,149.9,634.2,149.7z M634.2,24.8c3.4-0.8,6.6-2.1,9.8-3.2c0.4,0,0.6-0.6,0.6-0.8c0-0.4-0.4-0.6-0.8-0.4
		C640.2,21,636.8,21.9,634.2,24.8H634H634.2z M634.9,148.9c-0.2,0.4-0.4,0.6-0.8,0.8C634.4,149.5,634.8,149.3,634.9,148.9z
		 M635.7,148.4c-0.2,0.2-0.6,0.4-0.8,0.6C635.1,148.7,635.3,148.6,635.7,148.4z M636.5,147.6c-0.4,0.2-0.6,0.4-0.8,0.8
		C635.9,148,636.1,147.8,636.5,147.6z M637,146.9h0.2c-0.4,0.2-0.6,0.6-0.8,0.8C636.6,147.2,636.8,147,637,146.9z M637.8,146.1
		c-0.2,0.4-0.4,0.6-0.8,0.8C637.4,146.7,637.6,146.3,637.8,146.1z M638.5,25.3c0.9,0,1.9-0.2,2.8-0.4c2.5-0.6,4.2-1.7,3.2-1.9
		c-1.3-0.4-2.5,0.4-3.6,0.9c-0.9,0.4-1.7,0.9-2.5,1.5h-0.2L638.5,25.3z M640.4,34.8c2.5-0.8,4.7-1.7,7-2.6c0.4,0,0.8-0.2,0.9-0.6
		c0.2,0,0.2-0.4,0.2-0.6c-0.2-0.6-0.6-0.6-1.1-0.6c-2.8,0.4-5.3,1.7-7.6,3.4c-0.4,0.4-0.8,0.6-0.4,0.9C639.7,35,640.2,35,640.4,34.8
		z M643.6,38.4c-0.4,0.2-0.6,0.4-0.8,0.8C643.1,38.7,643.3,38.6,643.6,38.4z M645,37.6c-0.4,0.2-0.9,0.6-1.3,0.8h-0.2
		C644,38,644.6,37.8,645,37.6z M646.5,36.9c-0.6,0.4-0.9,0.6-1.5,0.8C645.5,37.4,645.9,37,646.5,36.9z M645.7,136.8
		c-0.2,0.2-0.4,0.4-0.8,0.8C645.1,137.2,645.5,137,645.7,136.8z M654.4,73.5c0.4,0,0.9,0,1.3,0c-0.6,0.6-1.1,1.5-2.1,0.8
		C653.8,74.1,654,73.7,654.4,73.5z M656.5,72.8c-0.2,0.4-0.4,0.6-0.8,0.8C655.9,73.3,656.3,73.1,656.5,72.8z M662.7,58.8
		c0.2-0.4,0.2-0.8,0.2-0.9c-0.2,0.2-0.4,0.4-0.8,0.8c-0.4,0.6-0.4,1.1,0,0.9C662.3,59.3,662.5,59,662.7,58.8z"/>
	<linearGradient id="SVGID_7_" gradientUnits="userSpaceOnUse" x1="720.5691" y1="-19.4045" x2="720.5691" y2="156.1123">
		<stop  offset="0" style="stop-color:#FFBA00"/>
		<stop  offset="1" style="stop-color:#FF0084"/>
	</linearGradient>
	<path class="st6" d="M729.1,166.7c0.2-0.8,0.4-1.5,0.6-2.5c0.2-0.6,0-1.1-0.6-1.3c-0.6-0.2-0.9,0.2-1.1,0.6
		c-0.6,0.9-1.1,1.9-1.5,2.8c-0.9,1.5-2.3,1.9-3.6,0.6c-1.3-1.1-2.3-2.5-2.5-4.3c0-1.1,0-2.3-0.2-3.4l0.2-0.2l-0.2,0.2
		c-0.2,0.2-0.4,0.6-0.6,0.8c-0.4,0.6-0.2,1.7-1.1,1.5c-0.4,0-0.4-1.1-0.6-1.7c-0.2-0.6-0.6-0.6-1.1-0.4c-1.7,1.1-1.7,0.9-2.6-0.4
		c-1.3-1.7-1.7-3.6-1.7-5.7c0-2.8,0.4-5.7,0.9-8.3c0.6-3,1.3-6,2.1-9.1c0.4-1.7,0.8-3.2,1.5-4.7c1.3-2.5,2.1-5.1,2.5-7.9
		c0.4-2.6,1.1-5.3,1.9-7.9c0.4-1.3,0.8-2.6,0.9-3.8c0.4-1.7,1.1-3.2,1.7-4.7c0.6-1.3,1.1-2.5,0.9-3.8c0-1.5-0.8-2.3-2.3-2.5
		c-1.5,0-3.2,0.2-4.9,0.2c-3.2,0.2-6.2,0.4-9.3,0.8c-0.9,0-1.7,0.2-2.6,0.2c-1.1,0.4-2.1,0.9-2.6,2.3c-0.8,1.3-1.5,2.6-2.1,4.2
		c-1.5,4.3-3,8.5-4.5,12.9c-1.7,4.9-3.6,9.8-5.1,14.9c-1.7,4.9-3,9.8-4.5,14.7c-0.8,1.9-1.3,3.8-1.9,5.9c-0.2,0.2-0.4,0.2-0.6,0.4
		c0-0.2-0.4-0.4-0.2-0.6c0.6-2.6,1.3-5.3,2.1-7.9c3.4-11.3,7.4-22.5,11.2-33.8c1.1-3.2,2.1-6.4,3.4-9.4c0.2-0.4,0.2-0.9,0.4-1.3
		c0-0.2-0.2-0.6-0.4-0.6c-0.2,0-0.6,0-0.8,0.2c-0.4,0.4-0.6,0.9-0.9,1.5c-0.6,1.3-0.9,2.6-1.5,4c-3,8.9-6.2,17.8-9.1,26.8
		c-1.5,4.7-2.8,9.5-4.2,14.2c-0.9,3-1.7,6-3.2,8.7c-0.6,0.9-0.9,1.9-2.1,2.5c-0.4,0-0.8,0-0.9,0c-0.4-0.2-0.6-0.6-0.6-0.9
		c0.2-0.8,0.4-1.7,0.4-2.5c0.2-0.6,0.2-0.9-0.4-1.1c-0.6-0.2-0.9,0.2-1.1,0.6c-0.6,0.9-1.1,1.9-1.9,2.6c-0.9,1.1-2.3,1.3-3.4,0.4
		c-0.9-0.6-1.5-1.5-1.9-2.6c-0.2-0.8-0.4-1.5-0.6-2.5c-0.2-0.4-0.6-0.6-1.1-0.4c-0.2,0.2-0.6,0.2-0.6,0.2c-0.8-1.3-1.7-1.9-2.8-0.6
		c-0.2,0.2-0.8,0-0.9-0.2c-2.3-2.5-3.6-5.3-2.8-8.7c0-0.6,0.2-1.3,0.4-2.1c1.5-3.8,1.9-8.1,3.2-12.1c0.8-2.3,1.1-4.5,1.5-7
		c0.2-1.3,0.2-2.8,0.8-4.2c1.9-4.7,2.6-9.8,4.3-14.4c0.8-2.1,1.3-4.2,1.3-6.4c0-1.3,0.2-2.8-0.4-4.2c-0.8-2.1,0-4.2-0.6-6
		c-0.2-0.4,0.4-0.9,0.6-1.3c0.6-1.3,0.2-1.7-1.3-1.5c-0.6,0-1.1,0.2-1.7,0.2c-0.4,0-0.9-0.2-1.1-0.6c-0.9-1.3-1.7-2.6-2.1-4.2
		c-0.2-1.3,0.2-2.5,1.3-3.2c1.3-0.8,2.8-1.5,4.2-2.1c2.1-0.8,4-1.5,6-2.1c2.3-0.8,3.6-1.9,4.3-4c2.3-6,4.5-11.9,6.8-17.8
		c2.1-5.9,4.2-11.5,7.6-16.6c1.9-2.6,3.2-5.7,4.9-8.3c0.9-1.3,1.7-2.6,2.8-3.6c1.7-1.5,3-3.2,4.2-5.1c1.5-2.5,3.2-4.7,5.5-6.4
		c0.9-0.8,1.7-1.9,2.5-2.6c1.3-1.3,2.3-1.7,3.8-0.8c1.1,0.6,2.3,0.8,3.4,1.3c0.9,0.4,1.1,1.3,0.6,2.1c-0.2,0.2-0.6,0.6-0.8,0.8
		c-1.3,0.8-1.5,2.1-1.5,3.4c0.2,0.2,0.2,0.6,0.4,0.6c0.4,0.2,0.8,0,0.9-0.4c0.2-0.4,0.6-0.9,0.9-1.5c0.8-0.9,0.9-1.1,2.3-0.2
		c0.4,0.2,0.8,0.4,1.1,0.6c3,1.3,4.2,3,4,6c-0.2,2.1-0.8,4-1.7,6.8c1.1-1.3,1.7-1.9,2.5-2.5c0.6-0.6,1.5-0.2,1.7,0.6
		c0.2,1.3-0.2,2.5-0.8,3.4c-2.1,3.4-3.2,7-4.9,10.6c-0.4,0.8-0.4,1.7-0.8,2.6c-0.2,0.6-0.4,0.9-0.6,1.5c-1.5,1.1-2.1,2.6-2.3,4.3
		c-0.2,0.4-0.4,0.9-0.6,1.5c-0.8,0.9-1.3,1.9-2.1,3c-3,5.3-5.1,11-7.9,16.4c-0.2,0.4-0.2,0.8-0.4,1.3c0,0.2,0.2,0.4,0.4,0.6
		c0.2,0,0.6,0,0.8-0.2c0.9-0.9,1.5-2.5,2.1-3.8c1.9-4.2,3.8-8.5,5.7-12.7c0.8-1.5,1.1-3.2,1.3-4.9c0.4-0.4,0.6-0.9,0.8-1.5
		c1.3-1.1,2.1-2.5,2.3-4.2c0.2-0.6,0.4-0.9,0.6-1.5c0.4-0.2,0.6-0.6,0.9-0.6c0.2-0.2,0.4-0.2,0.6-0.2c0,0,0.2,0.2,0.2,0.4
		c-0.2,0.4-0.2,0.9-0.4,1.3c-1.7,4.2-3.2,8.3-4.9,12.3c-0.8,1.7-1.5,3.4-2.3,4.9c-1.5,2.8-2.8,5.9-3.8,8.9c-0.6,1.7,0,2.6,1.7,2.8
		c4.5,0.2,9.1,0.2,13.6-0.4c2.1-0.2,3.6-1.3,4.3-3.4c0.8-1.9,1.7-3.6,2.5-5.5c0.6-1.1,0.9-2.5,1.3-3.8c0.6-2.5,1.5-4.9,2.6-7.4
		c0.9-1.7,1.7-3.6,2.6-5.5c0.4-0.9,0.9-1.9,1.5-2.8c2.5-3.6,4.5-7.4,6.6-11.2c1.7-3.2,3.8-6.2,6.8-8.7c1.1-0.9,2.1-2.3,3.2-3.2
		c2.1-1.9,4.3-1.9,6.4,0c0.9,1.1,1.3,2.1,0.2,3.2c-0.2,0.2-0.2,0.8,0,0.9c0,0.4,0.6,0.4,0.8,0.2c1.9-0.9,3,0.6,4.3,1.1
		c1.1,0.2,1.7,1.5,2.1,2.6c0.6,1.7,0.8,3.4,0.6,5.1c-0.2,0.9-0.4,2.1-0.4,3c0.8,0,0.9-0.8,1.5-0.9c0.6-0.6,1.5-0.2,1.5,0.6
		c0,2.3,0.2,4.3-0.2,6.4c-0.8,4.5-2.1,8.9-3.8,13.2c-1.5,4.3-3.2,8.7-4.9,13c-0.8,1.7-1.7,3.4-2.5,5.1c-1.5,3.2-3,6.2-4.3,9.4
		c-0.6,0.9-0.8,2.1-0.9,3c-0.4,1.3-0.6,2.5-1.1,3.6c-0.2,0.4-0.6,0.9-0.4,1.3c1.1,1.9-0.4,2.8-1.7,3.6c-1.3,1.1-2.1,2.6-2.8,4.2
		c-1.7,4.5-3.6,9.1-5.3,13.6c-1.7,4-3,7.9-4.7,11.7c-1.7,4.5-3.2,9.1-4.7,13.6c-1.1,3.8-2.8,7.6-4.5,11.3c0.2-2.3,0.8-4.3,1.5-6.2
		c4.7-13.6,9.6-26.8,14.9-40.1c0.4-0.9,0.8-2.1,1.1-3c0.2-0.8,0.6-1.3,0.2-2.1c-0.4-0.4-0.9,0.2-1.5,1.5c-1.5,3.4-3,6.8-4.3,10.4
		c-4,11-8.1,22.1-12.1,33.3c-1.7,4.9-3,10-4.3,14.9c-0.6,1.7-0.9,3.4-1.5,5.1c-0.6,1.3-1.3,2.6-2.5,3.4c-0.4,0.2-0.8,0.4-0.9,0.4
		C728.7,167.8,728.9,167.3,729.1,166.7z M671.2,141c0.2,0,0.2-0.2,0.2-0.2c0.2-0.2,0.2-0.2,0.2-0.4c-0.2,0.2-0.2,0.4-0.2,0.6
		l-0.2,0.2V141z M674.3,130.2c0.2-0.6,0.4-1.3,0.8-2.1V128v0.2C674.6,128.9,674.4,129.5,674.3,130.2l-0.2,0.2L674.3,130.2z
		 M685.6,131.9c0-0.2,0-0.6,0.2-0.9c-0.2,0.4-0.4,0.6-0.6,0.9c-0.2,0,0,0.4,0,0.6C685.2,132.3,685.4,132.1,685.6,131.9z
		 M688.4,123.8c0.8-0.8,1.5-3.2,1.1-3.8h-0.2c-0.8,0.8-1.1,1.7-1.5,2.6c-0.2,0.4,0,0.8,0,0.9c0,0.2,0,0.2,0.2,0.4
		C688.1,123.8,688.2,124,688.4,123.8z M694.3,105.7c0.4-0.8,0.4-1.5,0-1.3c-0.6,0.4-0.6,0.8-0.6,1.3c0,0.2,0,0.6,0,0.9
		C693.7,106.2,694.1,106,694.3,105.7z M697.1,60.5c2.5-4,4-8.3,5.7-12.5c0.2-0.4,0-0.8,0.2-1.1c-3.4,4-4.9,8.7-5.7,13.8L697.1,60.5z
		 M704.9,43.3c0.6-0.6,0.8-1.3,0.9-2.1c-0.6,0.6-1.1,0.9-1.3,1.9v0.2C704.7,43.3,704.9,43.3,704.9,43.3z M707.9,36.9
		c0.2-0.2,0.4-0.4,0.6-0.4c0-0.2,0.2-0.2,0.2-0.4c-0.2-0.2-0.4-0.2-0.4,0.2c-0.2,0.2-0.2,0.4-0.2,0.6c-0.4,0.6-0.6,0.9-0.8,1.5
		C707.5,37.8,707.7,37.2,707.9,36.9z M710.9,31.8c0.4-0.6,0.9-1.3,1.3-2.1l0.2-0.2l-0.2,0.2C711.9,30.4,711.3,31,710.9,31.8
		c-0.4,0.6-0.6,0.9-0.8,1.5C710.4,32.7,710.7,32.3,710.9,31.8z M718.1,21c-0.4,0.4-0.6,0.6-0.8,0.8C717.5,21.5,717.9,21.4,718.1,21z
		 M721.9,151.8c0-0.2,0.2-0.6,0.2-0.9l-0.2-0.2c-0.6,0.2-0.6,0.8-0.6,1.1c0,0.2,0,0.4,0,0.4C721.5,152.1,721.7,152.1,721.9,151.8z
		 M731,35.5c-0.2,0.6-0.2,1.3-0.6,1.7C729.8,36.5,730.6,36.1,731,35.5z M731.1,34.4c0-0.2,0.2-0.2,0.4-0.4c0,0.2,0,0.4,0,0.6
		c-0.2,0.4-0.4,0.6-0.6,0.8v0.2C731.1,35.2,731.1,34.8,731.1,34.4z M736.6,139.7c2.6-7.4,4.7-15.1,7.9-22.3c2.3-4.9,3.8-10,5.5-15.1
		c0.2-0.4,0.4-0.8,0.4-0.9c0-0.4,0-0.6-0.2-0.8c-0.2,0-0.6,0-0.6,0.2c-0.4,0.4-0.8,0.8-0.9,1.1c-1.3,3.4-2.8,6.8-4.2,10.4
		c-3,8.9-6,17.8-9.3,26.6c-0.6,1.7-1.1,3.4-0.9,5.3C735.7,142.9,736.1,141.2,736.6,139.7z M738.1,152.5c-0.4,4-1.7,7.6-2.8,11.3
		C735.3,159.9,736.4,156.1,738.1,152.5z M738.9,150.4c-0.2,0.8-0.4,1.5-0.8,2.1C738.3,151.8,738.7,151,738.9,150.4z M754.4,55.8
		c0.2-0.4,0.2-0.6,0.4-0.9c-0.2,0.4-0.4,0.6-0.6,0.8c-0.2,0.2,0,0.4,0,0.6C754.2,56.1,754.4,55.9,754.4,55.8z M758,47.6
		c-0.4,0.8-1.7,1.3-0.9,2.8C757.6,49.5,758.4,48.8,758,47.6z M762.1,87.1c3.2-7,6.4-14,9.6-20.8c0.2-0.6,0.4-1.1,0.4-1.7
		c0-0.2-0.2-0.4-0.4-0.6c0,0-0.2,0-0.4,0.2c-0.4,0.8-0.8,1.3-1.1,2.1c-0.9,1.7-1.5,3.2-2.5,4.9c-1.9,3.4-3.6,7-5.1,10.6
		c-0.8,1.9-1.1,3.8-1.9,5.7c0,0.2,0.4,0.4,0.4,0.6C761.8,87.9,761.9,87.5,762.1,87.1z M769.1,28.9c0.2-0.2,0.4-0.4,0.8-0.6
		c0.2-0.4,0.4-0.6,0.6-0.8c-0.2,0.2-0.4,0.4-0.8,0.6C769.5,28.5,769.3,28.7,769.1,28.9c-0.4,0.2-0.6,0.6-0.8,0.8
		C768.6,29.5,768.9,29.3,769.1,28.9z M774,58.4c0.8-0.8,1.5-1.5,1.7-2.6l-0.2-0.2c-0.2-0.2-0.4-0.2-0.4,0
		C774.4,56.3,774.2,57.5,774,58.4v0.2V58.4z M778.8,48.8c-0.2-0.2-0.4-0.6-0.4-0.4c-0.8,0-0.9,0.6-0.9,1.1c0,0.2,0.2,0.6,0.4,0.4
		C778.4,49.9,778.6,49.3,778.8,48.8z"/>
	<linearGradient id="SVGID_8_" gradientUnits="userSpaceOnUse" x1="810.5506" y1="-19.4045" x2="810.5506" y2="156.1123">
		<stop  offset="0" style="stop-color:#FFBA00"/>
		<stop  offset="1" style="stop-color:#FF0084"/>
	</linearGradient>
	<path class="st7" d="M829.8,163.5c0.9-1.5,1.9-3,2.8-4.5c0.4-0.4,0.8-0.9,0.4-1.3c-0.6-0.6-1.1,0-1.5,0.4c-1.1,1.1-2.3,2.3-3.2,3.4
		c-0.6,0.6-0.9,1.1-1.5,1.5c-1.3,1.3-2.8,1.3-4.2,0.2c-1.5-1.3-1.9-2.8-1.1-4.9c0.2-0.6,0.6-1.3,0.8-1.9c0-0.2-0.2-0.4-0.4-0.6
		c0,0-0.2,0-0.4,0c-0.6,0.6-1.3,1.1-2.5,2.1c0.4-1.3,0.8-2.3,1.1-3.2c0-0.2,0-0.6-0.2-0.6c-0.2-0.2-0.4-0.2-0.6-0.2
		c-0.6,0.4-1.1,0.9-1.7,1.3c-0.9,0.6-1.9,0.4-2.5-0.6c-0.9-2.1-1.5-4.2-0.8-6.2c1.9-4.9,2.6-10.2,4.9-14.9c1.3-2.8,1.7-6,2.5-9.1
		c0.4-1.1,0.8-2.5,0.9-3.8c0-0.8,0-1.7,0-2.5c-0.2-0.8-0.8-1.1-1.3-0.9c-0.9,0-1.9,0.4-2.8,0.6c-4,0.9-7.9,1.9-11.9,2.8
		c-0.2-0.6-0.6-1.1-1.1-0.8c-2.1,1.5-4.2,3-5.5,5.1c-0.4,0.6-0.8,0.9-0.9,1.5c-2.5,5.3-4.9,10.4-7.4,15.7c-1.5,3.2-3,6.6-4.5,10
		c-1.1,2.6-2.3,5.1-2.8,7.7c-0.2,1.1-0.8,1.7-2.1,1.7c-1.1,0-1.9,0.9-2.6,1.5c-1.3,1.3-2.1,1.1-3-0.6c0-0.2,0-0.2-0.2-0.4
		c-0.8-1.3-0.9-1.3-2.1-0.4c-0.2,0.2-0.4,0.6-0.8,0.8c-0.6,0.6-1.3,0.6-1.9,0.2c-1.9-1.1-3.2-2.5-3.6-4.7c0-0.8-0.2-1.5-0.2-2.1
		c-0.2-0.8-0.6-1.1-1.3-0.9c-3,0.4-4.3-1.3-5.3-3.8c-0.8-2.5-0.6-4.7,0-7.2c0.4-1.3,0.8-2.6,1.3-4c0.4-1.7,0.9-3.4,0.6-5.1
		c0-0.9,0.2-1.7,0.6-2.6c0.4-0.9,0.2-1.3-0.9-1.1c-0.6,0-1.1,0-1.7,0c-1.1-0.2-2.1-0.9-2.5-1.9c-0.4-1.3,0-2.3,0.8-3
		c1.1-0.8,2.5-1.7,3.6-2.5c0.6-0.4,1.1-0.6,1.5-0.9c1.1-0.9,3.4-0.8,3.6-2.8c-1.9-0.4-3,1.1-4.3,1.9c-1.5,0.8-2.8,1.9-5.1,2.5
		c1.1-1.5,2.3-2.3,3.4-2.8c1.9-1.1,4-2.3,6-3.4c0.6-0.2,1.1-0.6,1.7-0.9c0.2-0.2,0.6-0.8,0.4-0.9c0-0.4-0.6-0.6-0.8-0.4
		c-1.3,0.6-2.6,1.1-4,1.9c-2.3,1.3-4.5,2.6-6.8,4c-0.4,0.4-0.8,0.6-1.1,0.8c-0.6,0.2-1.1,0-1.1-0.6c-0.4-2.5,0-4.7,2.3-6.4
		c2.1-1.5,4.2-3.2,6.2-4.9c1.1-0.8,2.5-1.3,3.8-1.9c1.3-0.6,2.8-1.1,4.3-1.7c1.9-0.9,3.6-2.5,4.3-4.5c1.3-2.6,2.8-4.9,3.8-7.7
		c0.2-0.9,0.9-1.9,1.3-2.8c1.5-3,3-5.7,4-8.9c1.3-3.6,3-7,5.1-10.2c1.7-2.8,2.8-5.9,4.2-8.9c0.6-1.3,1.1-2.5,1.9-3.8
		c2.5-3.6,4.9-7.4,7.4-11c0.4-0.8,0.9-1.5,1.1-2.3c0.8-2.3,2.1-4.3,3.6-6.2c3.4-4.2,6.2-8.7,10-12.7c1.5-1.5,2.8-3.2,4.5-4.5
		c2.6-2.1,5.1-4.5,8.1-6.6c2.1-1.3,4.5-2.6,6.8-3.6c2.8-1.1,5.5-0.4,7.7,1.5c0.9,0.9,0.8,2.1-0.6,2.6c-1.1,0.6-2.3,1.1-3.4,1.7
		c-0.4,0.2-0.8,0.6-0.4,0.9c0.2,0.2,0.6,0.2,0.9,0.2c0.6-0.2,1.1-0.4,1.7-0.6c0.6-0.2,1.3-0.4,1.9-0.6c0.4,0.2,0.6,0.4,0.2,0.6
		c-0.6,0.6-1.1,0.9-1.9,1.5c0.9,0.8,1.9,0,2.6-0.2c0.6-0.2,1.1-0.4,1.7-0.6c1.3-0.2,2.3,0.6,3,1.7c0.6,0.8,0.6,1.7,0,2.6
		c-0.8,0.9-1.3,1.9-1.5,3.2c-0.2,0.2-0.6,0.4-0.8,0.8c-0.2,0.2-0.4,0.4-0.8,0.6c-0.2,0.4-0.4,0.6-0.8,0.8c0.4-0.2,0.6-0.4,0.8-0.8
		c0.4-0.2,0.6-0.4,0.8-0.8c0.2-0.2,0.6-0.4,0.8-0.6c0.6,0,1.1-0.2,1.7,0c0.9,0,1.3,0.8,0.9,1.3c-0.6,0.9-1.1,1.5-1.7,2.3
		c-0.8,0.9-1.3,1.7-2.1,2.6c-0.2,0.2-0.2,0.6,0.2,0.9c0.2,0,0.6,0,0.9,0c-0.2,0.6-0.4,1.1-0.4,1.7c0,2.1,0.8,3.8,2.6,4.7
		c2.3,1.3,3.8,3.2,4.9,5.7c1.3,2.8,2.8,5.5,4,8.3c1.1,3,1.5,6,1.7,9.3c0.2,4.5,0.4,9.3,0.6,13.8c0,0.9-0.2,1.9-0.2,2.8
		c-0.2,0.6-0.4,0.9-0.4,1.5c0.6,5.3-1.1,10.4-2.5,15.3c-1.3,4.3-2.6,8.5-4,12.7c-0.9,4-2.3,7.7-3.8,11.5c-0.4,0.8-0.8,1.5-0.9,2.5
		c-1.3,5.5-3.4,10.8-5.7,16.3c-0.6,1.5-1.3,3-1.7,4.5c-1.7,5.1-4.2,9.8-6.6,14.4c-0.8,1.5-1.7,2.5-2.6,3.4c0.4-0.9,0.8-2.1,1.3-3
		c1.7-3.6,3.6-7.2,5.3-11c0.6-1.1,0.9-2.1,1.3-3.4c1.3-4.9,3.4-9.6,5.3-14.4c1.1-2.3,1.9-4.7,2.1-7.2c-0.4,0.2-0.8,0.2-0.8,0.4
		c-2.5,6.4-4.9,13.2-7.6,19.7c-2.1,5.3-4.3,10.4-7.4,15.3c-0.8,1.3-1.7,2.5-2.6,3.8c-0.6,0.6-1.1,1.1-1.9,1.5
		c-0.6,0.4-1.1,0.6-1.7,0.2C829,164.8,829.4,164.1,829.8,163.5z M774.6,135.9c0.2,0,0.2-0.2,0.2-0.2c-0.2-0.2-0.4-0.2-0.4,0
		c-0.2,0.2,0,0.2,0,0.4C774.4,136.1,774.6,136.1,774.6,135.9z M784.2,156.5c0.9-2.3,1.7-4.5,2.8-6.8c3-6.2,6-12.7,9.1-19.1
		c0.6-1.1,1.1-2.5,1.7-4c0.2-0.2,0-0.6,0-0.9c-0.2-0.2-0.4-0.4-0.6-0.2c-0.6,0.2-0.9,0.8-1.1,1.3c-1.5,3-3,6.2-4.5,9.5
		c-2.5,5.3-5.1,10.4-7.2,15.9c-0.4,1.3-0.8,2.6-1.1,3.8c0,0.4,0,0.9,0.2,0.9C783.9,157.2,784.1,156.7,784.2,156.5z M796,88.3
		c-0.2,0.8-1.1,1.1-0.6,1.9C796,89.6,795.8,89,796,88.3z M798.8,83.2c0.2-0.4,0.6-0.9,0.8-1.3c0.2-0.4,0.4-0.6,0.6-0.8
		c0-0.2,0-0.4,0-0.6c-0.2,0-0.2,0.2-0.4,0.4c0,0.4-0.2,0.6-0.2,0.9c-0.2,0.4-0.4,0.9-0.8,1.5c-0.2,0.4-0.4,0.9-0.6,1.3
		C798.4,84.3,798.6,83.7,798.8,83.2z M806,69l0.2-0.2L806,69c-1.7,1.9-2.6,4-1.9,3.6C805.4,71.8,805.6,70.3,806,69z M818.5,113.2
		c0.2,0,0.4-0.2,0.4-0.4c-0.2-0.6-0.6-0.6-0.9-0.4c-3.4,0.6-7,1.3-10.4,2.1c-0.6,0-1.1,0.6-1.7,0.8c-0.2,0.2-0.2,0.4-0.2,0.6
		c0,0.6,0.4,0.6,0.9,0.8C810.3,115.7,814.5,114.9,818.5,113.2z M806.7,120.6v0.2h-0.2L806.7,120.6z M808.3,64.6h-0.2H808.3z
		 M811.8,58.2V58c-0.4,0.6-0.6,1.1-0.8,1.5C811.3,59.2,811.7,58.6,811.8,58.2z M829.6,95.6c0.6-1.3,0.9-3,1.3-4.3
		c1.7-4.2,2.6-8.3,3-12.7c0.2-1.1,0.6-2.5,0.8-3.8c1.3-4.7,2.5-9.4,3.8-14.2c0.2-0.8,0.2-1.5,0.4-1.9c0-0.4,0-0.6,0-0.6
		c-0.2-0.4-0.4-0.8-0.6-0.9c-0.4-0.2-0.6,0-0.9,0.4c-0.6,0.6-0.6,1.7-1.7,1.5c-1.5-0.2-2.3,0.6-3,1.5c-0.9,1.1-1.7,2.5-2.5,3.6
		c-2.3,4-4.5,8.1-7.2,11.9c-4.2,5.9-6.8,12.3-10.2,18.1c-0.2,0.4-0.2,0.9-0.4,1.3c0,0.2,0,0.4,0.2,0.4c0.2,0,0.4,0.2,0.6,0.2
		c0.6-0.2,1.1-0.8,1.3-1.1c0.9-1.7,1.9-3.4,2.6-5.1c1.3-3.2,3-6,4.9-8.7c1.1-1.5,1.9-2.8,2.6-4.3c1.9-3.4,3.6-6.8,5.5-10
		c0.8-1.5,1.7-2.6,2.6-4c0.4-0.4,0.6-0.9,1.1-0.4c0.2,0,0,0.6-0.2,0.9c-1.1,2.1-2.5,4.3-3.8,6.4c-1.5,2.3-2.8,4.7-4.2,7.2
		c-0.4,1.1-0.9,2.3-1.7,3c-3.2,4.3-5.1,9.3-7.6,14c0,0.2-0.2,0.6-0.2,0.9c-0.2,0.8,0.2,1.1,0.8,1.5c0.8,0.2,1.3,0.2,2.1,0.4
		c2.3,0,4.5,0.2,6.8,0.9C828.1,98.5,828.9,97.9,829.6,95.6z M829.8,32.9c0.2-0.2,0.4-0.4,0.6-0.6c0.4-0.4,0.6-0.6,0.8-0.8
		c0.4-0.2,0.6-0.6,0.8-0.8c0.2-0.2,0.6-0.6,0.8-0.8c0.2-0.2,0.4-0.4,0.8-0.8c0.2-0.2,0.4-0.4,0.8-0.6c0.2-0.4,0.4-0.6,0.6-0.8
		c0.4-0.4,0.6-0.6,0.8-0.8c0.9-0.4,1.5-0.8,2.3-1.5v0.2c-0.9,0.2-1.5,0.8-2.3,1.3c-0.2,0.2-0.4,0.6-0.6,0.8
		c-0.4,0.2-0.6,0.4-0.8,0.8c-0.4,0.2-0.6,0.4-0.8,0.6c-0.2,0.4-0.6,0.6-0.8,0.8c-0.2,0.4-0.6,0.6-0.8,0.8c-0.2,0.2-0.4,0.6-0.8,0.8
		c-0.2,0.2-0.4,0.6-0.6,0.8c-0.4,0.2-0.6,0.4-0.8,0.8c-0.2,0.2-0.6,0.4-0.8,0.6C829.2,33.5,829.4,33.3,829.8,32.9z M836.2,163.9
		 M837.5,54.6c0.2-0.4,0-0.6-0.2-0.6c-0.2,0-0.4,0.2-0.4,0.2c0,0.2,0,0.4,0,0.6C837.2,54.8,837.4,54.6,837.5,54.6z M852.9,120.6
		c1.5-2.5,2.5-5.3,3-8.1c0-0.2-0.2-0.4-0.4-0.4c-0.2,0-0.4,0.2-0.6,0.4c-0.9,2.6-2.1,5.3-3,7.7c0,0.2,0.2,0.6,0.4,0.6
		C852.3,121,852.7,120.8,852.9,120.6z M857.4,106.4c0,0,0,0,0-0.2c-0.2,0-0.2,0-0.2,0c-0.2,0-0.2,0-0.2,0.2
		C857,106.6,857.2,106.6,857.4,106.4z M858.5,103h-0.2l0.2,0.2V103z M860.4,96.4c0.2-0.2,0.2-0.6,0.2-0.9c0.9-1.1,1.3-2.3,0.8-1.9
		c-0.6,0.4-0.6,1.3-0.8,1.9c-0.2,0.4-0.4,0.6-0.6,0.9c0,0.2,0,0.4,0,0.6C860.2,96.8,860.4,96.6,860.4,96.4z"/>
	<linearGradient id="SVGID_9_" gradientUnits="userSpaceOnUse" x1="938.1912" y1="-19.4045" x2="938.1912" y2="156.1123">
		<stop  offset="0" style="stop-color:#FFBA00"/>
		<stop  offset="1" style="stop-color:#FF0084"/>
	</linearGradient>
	<path class="st8" d="M894.2,169.7c-0.6-1.5-0.8-1.7-2.3-1.5c-0.6,0.2-0.9,0.2-1.3,0.4c-1.1,0.2-1.9-0.2-2.6-0.9
		c-0.9-0.9-1.7-2.1-2.1-3.4c-0.6-1.9-1.7-3.6-3.2-4.9c-1.3-1.1-2.1-2.6-2.5-4.3c-0.4-2.3-0.6-4.5,0-6.8c0.8-4.9,1.5-9.6,3.6-14.4
		c0.8-1.7,1.1-3.8,1.5-5.7c1.7-5.7,4-11.2,5.9-16.6c0.9-2.6,1.9-5.3,2.6-7.9c1.1-4,2.6-7.9,4.3-11.7c1.9-4.7,3.8-9.6,5.7-14.4
		c1.3-3.6,3.2-7,4.3-10.6c0.8-1.9,1.9-3.6,2.8-5.3c2.1-3.4,3.8-6.8,5.3-10.2c0.8-1.5,1.7-2.6,2.5-4.2c0.6-1.1,0-2.3-1.3-2.3
		s-2.6,0.2-4,0.4c-5.7,1.3-11.5,2.5-17.2,3.8c-1.5,0.4-3.2,0.6-4.9,0.4c1.1-0.4,2.3-0.8,3.4-0.9c7.4-1.7,14.7-3.6,22.3-4.9
		c0.2,0,0.2-0.2,0.4-0.2c2.1-0.4,3.2-1.1,2.8-1.7c-1.1-0.8-2.1,0-3.2,0.2c-8.7,1.5-17.6,3.8-26.3,5.9c-1.1,0.2-2.3,0.6-3.4,0.4
		c-0.8-0.2-1.3-0.4-1.5-0.9c-0.4-0.8,0.2-1.1,0.8-1.5c0.2-0.2,0.4-0.2,0.6-0.4c0-0.2,0.2-0.6,0.2-0.6c-0.2-0.4-0.4-0.6-0.8-0.8
		c-0.8,0-1.5,0-2.1-0.2c-1.5-0.2-2.3-0.8-2.3-2.3c-0.2-0.6-0.2-1.3,0-2.1c0.8-2.5,0.6-4.9,0.4-7.4c-0.2-3.6,1.3-6.8,4.5-8.7
		c2.5-1.5,4.9-3,7.7-3.8c6.2-1.9,12.7-3.4,19.3-4.5c2.1-0.2,4.2-0.6,6.2-1.3c0.8-0.2,1.7-0.4,2.5-0.4c2.3,0.2,4.5-0.2,6.8-0.8
		c2.1-0.6,4.2-0.8,6.2-1.1c6.4-0.9,12.7-1.3,18.9-1.9c7.4-0.6,14.6-1.1,21.9-0.9c3,0,6,0.4,8.9,1.3c2.8,0.9,4.9,2.8,6.4,5.5
		c0.4,0.6,0.8,1.3,0.4,2.1c-0.6,2.1,0.8,3.8,1.5,5.7c0.6,1.1,1.5,2.3,1.9,3.4c0.9,1.9,0.8,2.8-1.1,4.3c-0.2,0.2-0.6,0.4-0.8,0.6
		c-0.6,0.6-0.6,1.1,0,1.5c0.4,0.6,0.9,0.8,1.5,1.1c0.6,0.6,0.4,1.3-0.4,1.7c-2.1,1.1-4.2,1.7-6.4,0.9c-2.5-0.9-4.7-0.8-7.2-0.9
		c-5.1-0.2-10.2,0.4-15.3,0.8c-2.3,0.2-4.5,0.8-6.8,1.1c-2.6,0.4-5.1,0.6-7.7,0.9c-2.5,0.4-2.8,0.9-3,3.2c-0.4,3.6-1.3,7.2-3,10.4
		c0,0.2-0.2,0.6-0.4,0.9c-0.2,0.4-0.4,0.9,0.2,1.3c0.4,0.2,0.6,0,0.9-0.2s0.6-0.4,0.9-0.6s0.9,0.4,0.9,0.8c0,0.2,0,0.4-0.2,0.4
		c-1.1,1.9-1.5,4-1.9,6c-0.6,2.1-1.3,4.2-2.5,5.9c-0.2,0.2-0.4,0.6-0.4,0.8c0.4,3-1.7,5.1-3.2,7.4v-0.2c0.6,1.5,0,2.5-0.8,3.6
		c-0.6,0.2-1.1,0.4-1.3,0.8h-0.2c0.6-0.2,1.1-0.4,1.5-0.8c-0.9,2.3-2.1,4.2-3.6,6c-0.9,1.3-1.9,2.6-2.1,4.2c0.2,0,0.4,0,0.8,0h-0.2
		c-0.8,4.2-2.8,7.7-4.9,11.3c-1.9-0.2-2.6,1.3-3.6,2.6c-0.2,0.4-0.4,0.9,0.2,1.1c0.2,0.2,0.6,0,0.8-0.4c0.9-1.1,1.9-2.3,2.6-3.4
		c-0.4,2.1-1.1,4-2.3,5.7c-1.1,1.9-2.1,4-2.8,6c-2.3,6-4.9,11.7-7.6,17.4c-1.1,2.3-1.9,4.7-2.8,7c-2.5,6.4-4.9,12.7-7.6,19.1
		c-0.2,0.6-0.4,1.5-1.3,0.9v0.2c-0.8,0.6-1.3,1.5-0.9,2.5c0.4,1.5,0.2,2.8-0.4,4.2c-0.8,1.7-0.8,3.6-1.1,5.3
		c-0.4,1.7-0.8,2.1-2.5,1.9c-1.3-0.2-2.5,0.4-3.8,0.8C895.2,171.2,894.8,171,894.2,169.7z M890.5,33.1c0.2-0.2,0.6-0.4,0.8-0.6h0.2
		h-0.2c-0.2,0.2-0.6,0.2-0.9,0.2c-0.2,0.2-0.2,0.4-0.4,0.4C890.1,33.1,890.3,33.3,890.5,33.1z M892.9,44c9.8-2.8,19.8-4.7,29.7-6.6
		c0.9-0.2,1.7-0.6,2.5-0.9c0.2-0.2,0.4-0.6,0.4-0.8c0-0.6-0.2-0.8-0.6-0.8c-0.8,0-1.5,0-2.3,0.2c-5.3,1.1-10.8,2.1-16.1,3.4
		c-4.2,0.9-8.3,2.1-12.5,3.2c-0.9,0.4-1.9,0.6-2.5,1.5c-0.2,0,0,0.4,0,0.6l0.2,0.2C892.2,44,892.5,44,892.9,44z M906.3,26.3
		c5.1-0.9,10.2-2.1,15.5-2.8c11.7-2.1,23.6-3.8,35.5-4.5c7.7-0.6,15.5-1.3,23.2-1.1c0.6,0.2,0.9,0.2,1.5,0c0.4,0,1.1,0,1.1-0.6
		c0-0.4-0.6-0.6-0.9-0.8c-0.8-0.2-1.5-0.2-2.5-0.4c-2.3-0.2-4.7-0.2-7.2-0.4c-3.6,0-7.2,0.6-10.6,0.8c-8.7,0.4-17.2,1.7-25.7,2.8
		c-6.4,0.9-12.9,2.1-19.1,3c-5.7,1.1-11.2,2.3-16.4,3.8c-0.6,0.2-1.3,0.2-1.1,1.1c0,0.2,0.9,0.2,1.3,0.2
		C902.8,27,904.5,26.7,906.3,26.3z M943.4,23.2c13.2-1.7,26.5-2.6,39.7-3.2c-3.8-0.8-7.6-1.3-11.3-1.1c-6.8,0.4-13.4,0.8-20,1.7
		c-6,0.8-12.1,1.7-18.1,2.5c-9.6,1.3-18.9,3.2-28.2,5.5c-0.6,0.2-1.3,0-1.3,1.1C917.3,27.4,930.3,24.8,943.4,23.2z M910.3,142.7
		c0.2-0.4,0.4-0.8,0.4-1.1c0-0.2,0-0.4,0-0.4c-0.4-0.2-0.6-0.2-0.6,0c-0.4,0.4-0.6,0.8-0.6,1.3c-0.2,0,0,0.4,0.2,0.6
		C909.9,142.9,910.1,142.9,910.3,142.7z M912.2,136.6l-0.2-0.2l-0.2,0.2c0,0.2,0.2,0.2,0.2,0.2C912.2,136.8,912.2,136.6,912.2,136.6
		z M916.9,125.1c0-0.2,0.2-0.4,0.2-0.6c0.2-0.2,0.4-0.4,0.6-0.6v-0.2c0-0.2-0.2-0.2-0.4,0.2c0,0.2,0,0.4-0.2,0.6
		c0,0.2-0.2,0.2-0.4,0.4c0,0.2-0.2,0.2-0.2,0.4C916.7,125.5,916.7,125.3,916.9,125.1z M921.7,114.9c0.2-0.2,0-0.4-0.2-0.4
		c-0.2,0-0.2,0-0.2,0.2c-0.2,0.2-0.4,0.4-0.4,0.6c0,0.4,0.2,0.4,0.4,0.2C921.5,115.5,921.7,115.1,921.7,114.9z M930.7,95.1
		c0.2-0.2,0-0.4-0.2-0.4c-0.4,0-0.6,0.4-0.6,0.8c-0.2,0.2,0,0.4,0.2,0.4C930.5,95.6,930.7,95.4,930.7,95.1z M950.6,33.1
		c9.4-1.3,18.7-2.1,28.2-2.1c1.7,0.2,3.2,0,4.7-0.2c0.6,0,1.1,0,1.5-0.9c-3-1.3-6-1.7-9.3-1.5c-9.3,0.4-18.5,1.3-27.6,2.5
		c-0.6,0.2-1.1,0.2-1.7,0.4c-0.8,0.2-1.7,0.4-1.5,1.1c0.2,0.9,1.1,0.9,1.7,0.9C947.9,33.6,949.2,33.3,950.6,33.1z M961.3,36.3
		c3.6-0.6,7.4-0.9,11.3-0.8c0.4,0,1.1,0,1.9,0c1.7,0,3.2,0.2,4.9-0.4c0.2,0,0.4-0.2,0.6-0.4c0-0.6-0.4-0.8-0.8-0.8
		c-5.9,0-11.7,0-17.4,0.6c-2.6,0.4-5.1,0.8-7.6,1.1c-1.3,0.2-2.5,0.4-3.8,0.8c-0.2,0-0.4,0.4-0.4,0.6s0.4,0.4,0.6,0.4
		c0.4,0.2,0.8,0.2,0.9,0.2C954.9,37.2,958.1,37,961.3,36.3z"/>
</g>
</svg>
